<svg fill="none" height="31" viewBox="0 0 81 31" width="81" xmlns="http://www.w3.org/2000/svg"><g fill="#fff"><path d="m33.404.658203c-.005.065822-.0152.131645-.0152.20253v6.227797c0 .06076.0051.11646.0102.20253.0557-.03544.0962-.05569.1265-.08607 1.2355-1.34176 2.7747-1.61012 4.4506-1.15442 1.6102.4405 2.4304 1.64555 2.7646 3.21516.0962.45063.1468.92147.1468 1.38227.0152 2.5418.0051 5.0784.0051 7.6202 0 .0759-.0102.1468-.0152.238h-4.3392v-.3038c0-2.1114.005-4.2177-.0051-6.3291 0-.3342-.0456-.6734-.1316-.9975-.157-.5721-.5519-.92146-1.1494-.99235-.6177-.07089-1.1392.11139-1.4886.64805-.2835.4304-.3544.9216-.3544 1.4279v6.2278.3139h-4.3544v-17.842897h4.3544z"/><path d="m81.0001.708836c-.0456.086075-.1013.17215-.1367.263289-1.4633 3.534145-2.9316 7.068295-4.3899 10.607475-.086.2076-.1822.2886-.4202.2886-1.519-.0101-3.038-.005-4.5519-.005-.0911 0-.1823 0-.3139 0 .0506-.1317.0861-.2228.1215-.3139 1.4633-3.53419 2.9266-7.07341 4.3899-10.607555.0354-.091138.0557-.18734.086-.283542h5.0127c.0658 0 .1367.03038.2025.050633z"/><path d="m49.5047 30.3284c-.1114-.0253-.2228-.0608-.3392-.081-1.0228-.1924-1.7671-.7595-2.2532-1.6709-.7746-1.4531-.6025-3.3417.4405-4.5316.8304-.9468 1.8836-1.2658 3.1089-.9823.4202.0962.7797.314 1.0785.6279.0506.0506.1063.1012.2126.2025.0101-.1975.0304-.3342.0203-.4709-.0152-.2177.086-.2683.2886-.2633.6076.0102 1.2152 0 1.8227 0 .3241 0 .3241 0 .3241.3443v4.8354c0 .4962-.0051.9975 0 1.4937 0 .2025-.0506.2886-.2684.2835-.6329-.0101-1.2658-.0101-1.8987 0-.2177 0-.2835-.081-.2734-.2835.0101-.1367-.0101-.2734-.0152-.4152-.0304-.0152-.0607-.0304-.0962-.0506-.0658.0861-.1164.1873-.1924.2633-.3848.3696-.8506.5671-1.3721.643-.081.0101-.1621.0456-.238.0658h-.3544zm.8355-2.2582c.8455 0 1.5038-.6228 1.5088-1.443 0-.7899-.6582-1.4583-1.4683-1.4684-.8203-.0101-1.4988.6431-1.4988 1.4582 0 .8152.633 1.4481 1.4633 1.4532z"/><path d="m72.3384 30.3258c-.1772-.0354-.3595-.081-.5367-.1063-1.6759-.2531-2.8253-1.5645-2.8962-3.2658-.0557-1.3063.3392-2.4101 1.3823-3.2303 1.5848-1.2456 4.0708-.9317 5.1949.643.5721.8051.7341 1.7215.6886 2.6886-.0102.2025-.1469.1721-.2684.1721-1.2658 0-2.5316 0-3.7974 0-.1772 0-.3544 0-.5317 0-.2632 0-.2886.0405-.2177.3038.1266.4507.5823.795 1.0988.8405.4708.0405.881-.0759 1.2202-.4253.0506-.0506.1671-.1012.2278-.0759.6532.2379 1.3064.4911 1.9899.7595-.0608.0962-.1013.1721-.1519.243-.6481.881-1.5494 1.2911-2.6126 1.4025-.0962.0101-.1924.0405-.2937.0658h-.5063zm1.4228-4.5062c-.0304-.4-.2178-.6735-.5418-.8406-.4962-.2531-.9975-.2379-1.4582.0811-.2532.1721-.4253.4151-.4051.7595z"/><path d="m66.4656 30.3291c-.1722-.0355-.3393-.076-.5165-.1064-1.7417-.2835-2.9316-1.6607-2.962-3.4227-.0304-1.7367.8152-3.0582 2.324-3.6.9216-.3291 1.8481-.324 2.7747 0 .1772.0608.2481.157.2481.3494-.0101.5671 0 1.1291 0 1.6962 0 .0759-.0101.1468-.0152.2329-.2633-.0861-.5012-.1874-.7544-.2431-.4405-.1012-.8709-.0759-1.281.1368-.5316.2734-.7949.724-.7797 1.3113.0202.6076.3848 1.0785.9518 1.276.5469.1924 1.0785.1266 1.595-.1114.0709-.0304.1367-.0658.2025-.0962h.0456c.0101.0557.0253.1215.0253.1823v1.7721c0 .1721-.0608.2683-.2228.3139-.319.081-.6329.162-.9519.2481-.081.0203-.1569.0456-.238.0658h-.4557z"/><path d="m23.3706 7.22655v-1.06328h4.1823v12.32903h-4.1873v-1.0886c-.0658.0456-.0962.0557-.1165.081-1.0126 1.1342-2.324 1.4683-3.767 1.3164-2.6481-.2734-4.638-2.1518-5.1949-4.8961-.4659-2.3038 0-4.39999 1.5797-6.18225 1.4835-1.67088 3.8126-2.28859 5.7822-1.58986.6481.22784 1.2051.5924 1.6557 1.11897.0203-.01012.0405-.01519.0608-.02531zm-2.4607 7.66575c1.438 0 2.5519-1.1139 2.5569-2.5468 0-1.4329-1.1189-2.55188-2.5518-2.55695-1.4532 0-2.5823 1.10885-2.5823 2.55185 0 1.4431 1.119 2.5519 2.5772 2.5519z"/><path d="m0 6.14591h.303795c1.382265 0 2.769595 0 4.151865-.00506.20253 0 .29367.06582.36456.25316.86075 2.22277 1.73669 4.44549 2.60251 6.66829.03544.0912.07595.1874.13671.3342.05569-.1266.0962-.2025.12658-.2836.881-2.2278 1.76201-4.45562 2.63288-6.68345.081-.21265.1823-.29367.4152-.2886 1.3266.01519 2.6481.00506 3.9746.00506h.314c-.0355.10633-.0608.18228-.0912.25823-2.2734 5.47846-4.5417 10.95186-6.81004 16.43026-.08102.2025-.17722.2785-.4.2785-1.35189-.0102-2.69871-.0051-4.0506-.0051s-.16203 0-.28354 0c.04556-.1215.07594-.2076.11139-.2937.55695-1.3113 1.10379-2.6278 1.67087-3.9341.08101-.1874.07595-.3392 0-.5266-1.67594-3.9443-3.34681-7.8885-5.017682-11.83281-.04557-.10633-.0860757-.21266-.151898-.37468z"/><path d="m69.0337 12.0117c0 3.7569-2.4506 6.4557-5.8481 6.7797-2.3088.2177-4.3392-.4202-5.8582-2.2278-1.6607-1.9798-1.9645-4.2734-1.0582-6.6582.8911-2.33922 2.7089-3.62023 5.1645-3.97465 1.5291-.22279 3.0076.00506 4.3544.7848 2.1671 1.24556 3.1696 3.17972 3.2405 5.30125zm-6.6177-2.16706c-1.4025 0-2.4759 1.08356-2.481 2.49616 0 1.4228 1.0785 2.5114 2.4962 2.5063 1.4025-.005 2.4709-1.0936 2.4658-2.5063 0-1.4126-1.0785-2.49616-2.481-2.49616z"/><path d="m55.0482 11.9673c-.0051 3.9747-2.7291 6.7696-6.324 6.8607-2.1317.0507-3.9949-.6025-5.3772-2.2632-1.6506-1.9899-1.9645-4.2734-1.0532-6.65821.8962-2.33922 2.7089-3.61516 5.1646-3.97972 1.4227-.20759 2.805-.02531 4.086.64304 2.3342 1.21011 3.4278 3.19491 3.5088 5.40249zm-6.6076 2.876c1.4026 0 2.476-1.0886 2.476-2.5013 0-1.4126-1.0785-2.49617-2.476-2.50123-1.4126 0-2.486 1.08863-2.481 2.51643 0 1.4127 1.0785 2.4911 2.4861 2.4861z"/><path d="m57.9155 23.8933c.0405-.0405.0861-.0709.1215-.1165.6329-.7848 1.4684-.9468 2.395-.7392.9215.2025 1.4379.8304 1.6556 1.7215.0709.2835.1013.5823.1013.8759.0101 1.3924 0 2.7848.0101 4.1772 0 .238-.0709.3038-.3038.2988-.6177-.0152-1.2303-.0152-1.848 0-.2532.005-.3393-.0659-.3342-.3241.0152-1.0481.005-2.0911 0-3.1392 0-.1924-.0102-.3899-.0304-.5823-.0557-.5114-.3899-.8405-.8658-.8607-.4456-.0152-.8304.2987-.9266.7746-.0354.1823-.0506.3697-.0557.5519 0 1.0988-.0101 2.1924 0 3.2912 0 .2278-.0709.2886-.2886.2835-.643-.0152-1.281-.0101-1.924 0-.1975 0-.2684-.0608-.2684-.2582 0-2.1418 0-4.2835 0-6.4253 0-.1924.0557-.2683.2582-.2683.6583.0101 1.3165.0101 1.9747 0 .1873 0 .2582.0607.243.248-.0101.157 0 .314 0 .4709.0254.0102.0507.0152.076.0254z"/><path d="m41.4147 23.9334c.0354-.0557.0607-.1215.1012-.1721 1.0836-1.3063 3.2405-.9975 3.8835.5671.1367.3341.2279.7139.2329 1.0784.0254 1.4836.0102 2.9671.0203 4.4557 0 .1924-.0709.2481-.2532.243-.6481-.0101-1.3012-.0101-1.9493 0-.2127 0-.2785-.0658-.2734-.2734.0101-1.1291.0101-2.2582 0-3.3924 0-.2177-.0304-.4405-.0962-.648-.1114-.3747-.395-.5671-.7747-.5823-.3646-.0152-.6836.1215-.8253.4709-.1064.2582-.1671.5519-.1722.8303-.0202 1.0886-.0152 2.1772 0 3.2658 0 .2481-.0557.3443-.324.3342-.6329-.0202-1.2658-.0101-1.8987 0-.1975 0-.2633-.0608-.2633-.2582.005-2.1418 0-4.2835 0-6.4253 0-.1873.0455-.2734.2531-.2683.6583.0101 1.3165.0101 1.9747 0 .1873 0 .2633.0557.2532.2481-.0102.162 0 .324 0 .486.0354.0152.0759.0304.1114.0456z"/><path d="m34.2748 21.919c-.2734-.0203-.5417-.0659-.805-.0608-.5975.0152-1.0127.4962-.9823 1.0937.0101.1721.1013.2076.2481.2076h1.2405c.1721 0 .243.0557.238.2329-.0051.5164-.0051 1.0278 0 1.5443 0 .162-.0608.2228-.2279.2177-.3949-.0101-.7949.0101-1.1898-.0051-.2532-.0101-.314.0861-.314.319.0102 1.4177 0 2.8354 0 4.2531 0 .26-.1265.3899-.3797.3899-.5924 0-1.1797-.0101-1.7721 0-.238.0051-.319-.0607-.319-.3088.0101-1.4329.005-2.8658.005-4.3038 0-.3494 0-.3494-.3443-.3544-.405 0-.6076-.2026-.6076-.6076 0-.3646.0102-.7241 0-1.0886-.005-.2127.0557-.319.2836-.2937.1316.0152.2683-.0051.405 0 .1975.0152.2481-.0709.2735-.2633.0607-.481.0911-.9823.2531-1.4329.3848-1.0582 1.2253-1.5898 2.3139-1.686.4861-.0456.9874.0455 1.4785.0962.081.0101.2127.1417.2177.2177.0152.5873.0051 1.1797 0 1.7721 0 .0203-.0202.0456-.0253.0557z"/><path d="m69.5938 15.8902c0-1.6253 1.3012-2.9214 2.9316-2.9214 1.605 0 2.8405 1.2404 2.8303 2.8404-.005 1.6405-1.3063 2.9266-2.9569 2.9215-1.5848-.005-2.8101-1.2506-2.805-2.8405z"/><path d="m37.6665 26.633v3.2355c0 .1721-.0405.2379-.2227.2379-.6735-.0101-1.3469-.0101-2.0253 0-.1773 0-.233-.0607-.233-.2329 0-2.1569 0-4.3139 0-6.4759 0-.1873.0659-.2481.2481-.243.6481.0101 1.2962.0101 1.9494 0 .2278 0 .2886.081.2835.2937-.0101 1.0632 0 2.1265 0 3.1847z"/><path d="m36.4315 22.4204c-.7798 0-1.3924-.5974-1.3924-1.3671 0-.7594.6278-1.3873 1.3873-1.3873.7645 0 1.3873.6228 1.3924 1.3823 0 .7747-.5975 1.3671-1.3823 1.3721z"/></g></svg>