<svg fill="none" height="35" viewBox="0 0 85 35" width="85" xmlns="http://www.w3.org/2000/svg"><g fill="#fff"><path d="m34.6232 8.94572-1.2201-.00573c-.0167 0-.0327-.00664-.0446-.01846-.0118-.01182-.0184-.02785-.0184-.04456v-.83538c0-.00993.0019-.01977.0057-.02895.0038-.00917.0094-.01751.0164-.02453.0071-.00702.0154-.0126.0246-.0164s.019-.00575.0289-.00575h4.3563c.0181-.00001.0354.00708.0483.01973.0128.01264.0202.02984.0205.04788l.0069.79756c0 .0152-.006.02977-.0168.04051-.0107.01075-.0253.01679-.0405.01679l-.6938-.00459c-.0235.00001-.0461.00964-.0628.0268-.0168.01716-.0263.04047-.0266.06488l-.031 3.05158c-.0007.0359-.0127.0725-.0344.1054-.8913 1.3507-2.1588 2.0914-3.8024 2.222-.6628.0527-1.3145.0187-1.9551-.102-.7079-.1337-1.313-.3541-1.8152-.6612-.8379-.5118-1.4426-1.2609-1.8141-2.2472-.386-1.0221-.5791-2.08134-.5791-3.17761 0-.59206 0-1.18412 0-1.77618 0-.71583.1246-1.52752.3739-2.4351.2392-.87243.6658-1.63944 1.2797-2.30102.3226-.34836.7006-.61956 1.134-.813609.763-.34225 1.5634-.538585 2.4012-.589006 1.532-.093202 2.9157.303671 4.151 1.190615.0394.02813.0725.06427.0972.1061.0247.04184.0404.08844.0462.13684l.2706 2.17955c.0015.01196.0002.0241-.0037.03558-.004.01149-.0105.02206-.0193.03098-.0087.00892-.0193.01599-.0312.02072s-.0247.00701-.0376.00669l-.9437-.0275c-.023-.00053-.0449-.00935-.0613-.02468-.0164-.01532-.0261-.036-.027-.05783-.0114-.29489-.0585-.57526-.141-.84111-.0826-.2628-.2144-.50917-.3956-.73912-.4618-.58519-1.0512-.92706-1.7682-1.02561-.6108-.08403-1.1712-.02979-1.6811.16272-.5618.21162-1.0033.6104-1.3244 1.19635-.2217.40413-.3922.82889-.5114 1.27427-.4839 1.81209-.5932 3.63526-.328 5.46951.1078.74105.232 1.32545.3727 1.75325.2026.6158.4961 1.1448.8807 1.5871.2905.3331.6624.5558 1.1157.6681.3929.0978.8115.1035 1.2556.0172.5428-.1047 1.0248-.3327 1.446-.6841.1062-.0886.1594-.2013.1594-.3381l-.0058-3.34493c0-.0155-.006-.03037-.0168-.04133-.0107-.01096-.0253-.01712-.0405-.01712z"/><path d="m9.02903.4316h-8.999216c-.0164658 0-.029814.01334-.029814.029794v13.806106c0 .0165.0133482.0298.029814.0298h8.999216c.01647 0 .02982-.0133.02982-.0298v-13.806106c0-.016454-.01335-.029794-.02982-.029794z"/><path d="m11.603 13.0872-.0218-11.61624c0-.00883-.0019-.01756-.0055-.0257s-.009-.01552-.0157-.02171-.0147-.01106-.0235-.01433c-.0087-.00327-.0181-.00488-.0275-.00472l-.7947.01145c-.0156.00029-.0307-.00579-.0421-.01693s-.0181-.02646-.0187-.04265l-.0378-.758608c-.0006-.014066.0017-.028112.0068-.041292.005-.013179.0128-.025217.0228-.03539.0099-.010173.0219-.018268.0351-.023799.0133-.00553.0275-.008382.0419-.008381h5.5317c1.1145-.000764 2.0965.27846 2.9458.83767.7706.50803 1.3114 1.23837 1.6226 2.19102.2178.66692.3654 1.34608.4426 2.03745.0696.62033.0956 1.31171.078 2.07413-.0222.97022-.1441 1.94922-.3658 2.93703-.1414.6295-.3849 1.1925-.7305 1.6891-.3401.4881-.7854.8885-1.3359 1.2009-.7744.44-1.6313.6612-2.5708.6635-1.8447.0038-3.7287.0057-5.6521.0057-.0094 0-.0187-.0019-.0274-.0058s-.0166-.0095-.0233-.0167c-.0066-.0071-.0118-.0156-.0153-.0249s-.0052-.0193-.0051-.0293l.0184-.84c.0003-.0153.0063-.0299.0168-.0406s.0247-.0167.0394-.0167l.8543-.0057c.0152 0 .0297-.0062.0405-.0172.0107-.0109.0168-.0258.0168-.0413zm5.9215-11.06161c-.5122-.39726-1.0982-.59245-1.7579-.58557-.5642.00611-1.1383-.00573-1.7223-.03552-.0108-.00063-.0216.00092-.0317.00456-.0102.00363-.0194.00927-.0273.01657-.0078.0073-.0141.01611-.0183.02587-.0043.00977-.0064.02029-.0064.03092l.0206 11.64838c0 .0152.006.0299.0166.0409.0107.0111.0253.0178.0408.0187.6497.0389 1.2976.029 1.9436-.0298.4633-.0421.839-.1433 1.1272-.3037.4434-.2468.7908-.5909 1.0423-1.0325.1621-.2842.3154-.6662.4599-1.1459.1108-.3705.1968-.77581.258-1.21584.2079-1.49353.2243-2.92938.0493-4.30754-.1139-.89306-.3968-1.72768-.8486-2.50386-.1414-.24446-.3233-.45302-.5458-.62567z"/><path d="m25.4057 13.1206.946.0515c.0168.0009.0326.0074.0443.0182.0117.0109.0184.0253.0188.0403l.0126.8308c0 .0152-.0065.0298-.0181.0405s-.0274.0168-.0438.0168l-4.5007-.0138c-.0163.0001-.0319-.0059-.0434-.0167-.0116-.0107-.0183-.0253-.0186-.0406l-.0126-.8021c-.0001-.0114.0021-.0227.0065-.0332.0044-.0106.011-.0202.0193-.0283s.0182-.0145.0292-.0189c.0109-.0044.0226-.0067.0345-.0067l1.0492-.0069c.0164 0 .0322-.0065.0438-.0181s.0181-.0273.0181-.0438v-11.60935c0-.00617-.0011-.01228-.0032-.01798-.0022-.0057-.0053-.01088-.0092-.01524-.004-.00436-.0086-.00782-.0138-.01018-.0051-.00237-.0107-.00358-.0162-.00358l-1.0343.00229c-.0158.00013-.0314-.00239-.0459-.00741-.0146-.00503-.0278-.01245-.0389-.02185-.0111-.00939-.0199-.02056-.0258-.03285s-.0089-.02546-.0087-.03873l.0126-.75975c.0004-.015538.0075-.030377.0199-.041461.0123-.011085.029-.017572.0466-.018127 1.5075-.048129 3.0147-.045837 4.5214.006876.0144.000576.0281.007145.0379.01829.0099.011146.0152.025976.0149.041297l-.0149.756315c-.0005.017-.0046.03371-.0119.04899-.0073.01529-.0178.02878-.0306.03955-.0129.01077-.0278.01858-.0439.02288-.016.00429-.0327.00499-.0489.00202-.3288-.05958-.6265-.05806-.8933.00459-.0159.00363-.0302.01263-.0404.02553s-.0157.02894-.0158.04552l.0011 11.53146c0 .0158.0058.0311.0162.0426.0105.0115.0248.0184.04.0193z"/><path d="m41.4601 13.1214.961.0379c.0178.0008.0346.007.0469.0172.0124.0102.0194.0237.0196.0378l.0149.7987c.0003.0146-.0026.0291-.0086.0427s-.0149.026-.0262.0365c-.0113.0104-.0248.0188-.0397.0244-.0149.0057-.0309.0087-.0471.0087h-4.4445c-.0084 0-.0167-.0016-.0244-.0047-.0078-.003-.0148-.0075-.0207-.0132-.0058-.0057-.0104-.0124-.0135-.0197-.0031-.0074-.0047-.0152-.0045-.0232l.0126-.8342c.0003-.0155.0069-.0303.0184-.0414s.0271-.0176.0435-.0182l1.0458-.0389c.0157-.0006.0306-.007.0415-.0179s.017-.0255.017-.0406v-11.56009c0-.01622-.0059-.03178-.0164-.04336-.0105-.01157-.0248-.01822-.0398-.01852l-1.0286-.01261c-.0244-.0003-.0477-.00949-.0649-.02557-.0172-.01609-.0268-.03778-.0268-.06037l-.008-.778087c0-.007675.0015-.015274.0045-.022365.003-.00709.0074-.013533.0129-.01896.0056-.005427.0121-.009731.0194-.012668.0072-.002937.015-.004449.0228-.004449l4.456-.026356c.0301-.000047.0591.011502.0813.032331.0221.020829.0357.049396.038.079969.0237.310928.0107.576785-.039.797565-.0035.01488-.0128.02783-.0258.03614-.013.00832-.0288.01138-.0442.00855-.3134-.0573-.6249-.05309-.9345.01261-.0156.00362-.0296.01249-.0396.02518-.0099.01269-.0154.02845-.0155.04472v11.53144c0 .0163.0058.032.0163.0438s.0248.0187.0399.0192z"/><path d="m47.0061 1.41481c-.8699.02597-1.4429.03017-1.7188.0126-.1766-.01146-.3372.00268-.4817.0424-.1437.03896-.2679.12911-.3726.27044-.2492.33537-.3918.71697-.4277 1.14478-.0015.01844-.0098.03566-.0235.04819-.0136.01254-.0314.01948-.0499.01942l-.8956-.00573c-.0071.0001-.0141-.00138-.0206-.00432s-.0123-.00728-.0169-.01272c-.0047-.00544-.0082-.01185-.0102-.0188-.0021-.00695-.0026-.01427-.0016-.02145l.3188-2.331966c.0027-.019065.0124-.036503.0271-.049127s.0336-.019591.0531-.019629h9.7721c.0179.000103.0352.006644.0487.018428s.0222.028022.0247.045744l.3326 2.3354c.0009.00726.0004.01464-.0015.02165-.002.00701-.0054.0135-.0099.01903-.0046.00553-.0102.00997-.0165.01304-.0064.00306-.0133.00467-.0203.00472h-.8715c-.0215.0001-.0424-.00791-.059-.0226-.0166-.0147-.0278-.03511-.0316-.05761-.0718-.41101-.2006-.77159-.3864-1.08176-.068-.11306-.1735-.20512-.3165-.27617-.1001-.04889-.2331-.07639-.399-.0825-.6063-.02292-1.2377-.02942-1.8944-.01948-.0285.0006-.0556.01233-.0755.03268-.02.02035-.0311.0477-.0311.07618v11.54755c0 .0218.0084.0428.0235.0583s.0355.0242.0568.0242l.7763.0034c.0237 0 .0464.0093.0632.0258.0168.0166.0262.039.0262.0624v.8308c0 .0152-.006.0298-.0168.0405-.0107.0108-.0253.0168-.0405.0168h-4.1373c-.0096 0-.019-.0018-.0279-.0053-.0088-.0036-.0169-.0087-.0236-.0152s-.012-.0142-.0156-.0227c-.0035-.0085-.0053-.0175-.0051-.0267l.0114-.8262c.0003-.0163.0071-.0319.0188-.0434.0118-.0116.0277-.0182.0443-.0185l.8073-.0137c.0159-.0003.031-.0065.0422-.0172.0111-.0107.0174-.0251.0174-.0401l-.0069-11.62659c0-.00742-.0015-.01476-.0044-.02159-.003-.00683-.0073-.013-.0128-.01813-.0055-.00514-.0119-.00915-.019-.01177-.0071-.00263-.0147-.00382-.0223-.00351z"/><path d="m54.5326 13.2064.5137-.0321c.0182-.0012.0364.0007.0536.0055.0171.0047.0329.0123.0463.0223.0133.0099.0241.022.0316.0356.0074.0135.0115.0282.0119.0432l.0206.7804c.0001.0074-.0013.0149-.0042.0218s-.0073.0133-.0129.0186c-.0055.0053-.0121.0096-.0194.0125-.0074.0029-.0152.0044-.0231.0044l-2.7486.0068c-.0108.0001-.0215-.0022-.0315-.0067-.0099-.0044-.019-.0109-.0265-.0191-.0076-.0083-.0136-.018-.0176-.0287s-.006-.0222-.0059-.0337l.0081-.7643c0-.0155.0056-.0304.0157-.0414.0102-.0109.0239-.0171.0382-.0171l.8611-.0057c.0263-.0004.0518-.0089.0728-.0243s.0364-.037.0442-.0616l3.9217-12.528468c.0051-.016934.0148-.032099.028-.043826.0131-.011727.0292-.019562.0465-.022638.3241-.05806.649-.062261.9747-.012604.0172.002786.0333.010267.0465.021603s.0229.026078.028.042568l4.0387 12.541065c.0057.0177.016.0333.0296.0446.0135.0112.0296.0177.046.0184l.8669.0218c.0207.0002.0405.008.0552.0216.0148.0137.0233.0322.024.0517l.0309.7666c.0005.0104-.0012.0207-.0048.0305-.0037.0097-.0093.0186-.0164.0261-.0072.0075-.0158.0134-.0254.0175-.0095.0041-.0198.0062-.0302.0061h-3.9779c-.0119.0001-.0237-.0025-.0347-.0075-.0111-.005-.021-.0124-.0293-.0217-.0084-.0093-.0149-.0203-.0193-.0324-.0043-.0121-.0064-.0251-.0061-.0381l.0149-.6978c.0005-.024.0063-.0477.0168-.0691.0106-.0215.0256-.0402.0439-.0548.0184-.0146.0396-.0246.062-.0294.0225-.0047.0456-.004.0676.002.1606.0443.3181.0501.4725.0172.0071-.0017.0138-.0048.0196-.0092.0058-.0045.0107-.0101.0142-.0166.0036-.0064.0058-.0136.0065-.021.0006-.0074-.0002-.0149-.0025-.022l-1.1318-3.47899c-.0053-.01599-.0153-.02992-.0287-.03979-.0134-.00988-.0294-.0152-.0458-.01521l-3.1282-.01948c-.0355.00005-.0701.0114-.0988.03242-.0286.02101-.0498.05059-.0606.08446l-1.0824 3.45839c-.0023.0071-.0029.0146-.002.0219.001.0073.0036.0142.0075.0201.004.0058.0092.0105.0152.0136s.0127.0044.0194.004zm2.7142-8.69987c-.4778 1.35601-.9166 2.71928-1.3164 4.08981-.0019.00663-.0023.01362-.0011.02042s.004.01322.0081.01878c.0041.00555.0094.01007.0156.01321.0061.00314.0129.00482.0198.00489h2.5961c.0075.00002.0149-.00174.0215-.00512.0067-.00339.0124-.00831.0168-.01436.0044-.00604.0072-.01304.0084-.02042.0011-.00737.0004-.01491-.0019-.02198l-1.313-4.08409c-.0176-.05271-.0355-.05309-.0539-.00114z"/><path d="m67.7477 13.1446c1.3562.0077 2.7127.01 4.0696.0069.0038 0 .0956.0046.2752.0138.4021.0191.6884-.1501.8589-.5077.1093-.2299.2144-.5409.3153-.9328.0039-.0151.0128-.0285.0255-.0381.0127-.0095.0283-.0147.0445-.0146l.8474-.0011c.0072 0 .0144.0014.021.0042.0066.0029.0125.007.0173.0121s.0084.0111.0105.0176c.002.0064.0026.0133.0016.0199l-.3199 2.3423c-.0022.0162-.0104.031-.023.0417-.0127.0108-.0289.0167-.0458.0168l-9.3937-.0069c-.0177 0-.0348-.0058-.0474-.0163-.0127-.0105-.0199-.0248-.0202-.0399l-.0149-.7987c-.0004-.0146.0026-.0291.0085-.0427.006-.0136.0149-.026.0262-.0365.0113-.0104.0249-.0188.0398-.0244.0149-.0057.0308-.0087.047-.0087h.7534c.0158 0 .031-.0063.0421-.0174.0112-.0112.0175-.0264.0175-.0422v-11.59446c0-.01273-.0025-.02534-.0075-.03705-.0049-.01171-.0122-.02228-.0213-.03107s-.0199-.01561-.0317-.02005c-.0118-.00445-.0244-.00642-.037-.00579l-.735.02864c-.0161.00071-.032-.00418-.0448-.01381-.0127-.00964-.0217-.02341-.0251-.0389-.0643-.26585-.0727-.534383-.0253-.805586.0027-.015914.0107-.030428.0229-.04108.0121-.010651.0275-.016785.0436-.017362 1.3646-.048129 2.7288-.045837 4.0926.006876.0142.000595.0276.007134.0375.018246.0098.011111.0153.025928.0152.041341v.758605c.0001.01591-.0053.03118-.015.04254-.0096.01135-.0228.01789-.0366.01819l-.6387.0149c-.1437.00306-.2156.0741-.2156.21314l.0092 11.45698c0 .0155.0059.0304.0165.0413.0105.011.0248.0171.0397.0171z"/><path d="m25.131 18.1773c.7078.6157 1.2082 1.4041 1.501 2.3652.2576.8472.4078 1.649.4506 2.4053.0688 1.2322.0237 2.3976-.1353 3.4962-.091.6264-.266 1.2391-.5252 1.8381-.2813.6508-.6234 1.1784-1.0263 1.5825-.7476.7494-1.702 1.1753-2.8632 1.2777-.5887.0519-1.1544.0409-1.6971-.0332-.6032-.0833-1.136-.2498-1.5985-.4997-.8318-.4492-1.4628-1.131-1.8932-2.0454-.2171-.4607-.3723-.9015-.4656-1.3224-.4288-1.9214-.4674-3.8511-.1158-5.7893.1751-.9656.5145-1.8109 1.0183-2.5359.3417-.4912.7748-.8889 1.2992-1.1929.4617-.2674 1.0045-.4553 1.6283-.5638.7423-.1291 1.4941-.1303 2.2555-.0034.8203.1375 1.5427.4778 2.1673 1.021zm-2.4425.0515c-.6376-.2841-1.274-.2616-1.9092.0677-.2538.1306-.4763.2998-.6674.5076-.2018.2185-.3578.4565-.4679.7139-.3646.8572-.5916 1.7628-.6811 2.717-.0474.5149-.068 1.1257-.0619 1.8323.0038.518.0294 1.1288.0768 1.8324.0596.8854.2458 1.7433.5585 2.5737.1895.5035.4502.8988.782 1.1861.503.4362 1.0706.6211 1.7028.5546.4335-.0458.8214-.1994 1.1639-.4607.3448-.2635.6112-.6058.7993-1.0267.3394-.7617.5515-1.5577.6364-2.3881.1697-1.6761.1311-3.3465-.1158-5.0112-.0742-.5019-.1965-.9912-.367-1.4679-.1307-.3659-.3191-.6906-.5653-.974-.25-.2873-.5447-.5062-.8841-.6567z"/><path d="m15.8191 17.3295c.0131.0004.026.0034.0379.0089.012.0055.0227.0133.0317.023.0089.0097.0159.0211.0205.0335s.0067.0256.0062.0388l-.0252.738c-.0006.0167-.0068.0325-.0175.0442-.0106.0118-.0249.0185-.0398.0188l-.8222.0104c-.0276.0006-.0538.0113-.0731.03-.0193.0186-.0301.0436-.0301.0697v10.6491c0 1.0557-.0837 1.9709-.2511 2.7456-.3914 1.8029-1.5423 2.8106-3.4527 3.023-.0289.0033-.058-.0024-.083-.0162s-.0445-.0351-.0558-.0606l-.3417-.7586c-.0029-.0061-.0043-.0127-.0039-.0195.0004-.0067.0024-.0133.0061-.0191.0036-.0059.0086-.0109.0146-.0145.006-.0037.0129-.0059.0199-.0065.4174-.0336.7435-.2028.9781-.5077.1965-.2544.3421-.5359.4369-.8445.2378-.7731.3567-1.565.3567-2.3755.0015-3.9321-.002-7.8638-.0104-11.795.0001-.0176-.0057-.0344-.0162-.0471-.0105-.0126-.0248-.02-.04-.0206l-.7786-.0194c-.0319-.0009-.0622-.0122-.0847-.0317-.0224-.0194-.0352-.0454-.0357-.0726l-.016-.7621c-.0003-.0153.0059-.0301.0173-.0412s.027-.0177.0435-.0183c1.3699-.0421 2.7727-.0428 4.2083-.0023z"/><path d="m36.374 18.2577-.8348-.024c-.0146-.0007-.0285-.0074-.0387-.0189s-.0161-.0269-.0163-.043l-.0126-.7735c-.0004-.0153.005-.0302.0148-.0413.0099-.0112.0235-.0177.0379-.0183.9915-.0527 1.9784-.0546 2.9608-.0057.0119.0006.0235.0038.0341.0092.0107.0054.02.0131.0275.0224.0074.0093.0129.02.0159.0316.003.0115.0035.0235.0016.0353-.0443.2758-.0493.5336-.0149.7735.0011.0093.0001.0187-.0029.0275-.0031.0088-.0082.0167-.0148.0233-.0067.0065-.0147.0114-.0236.0144-.0089.0029-.0183.0037-.0275.0024-.279-.0405-.5569-.0389-.8337.0046-.0158.0025-.0302.0107-.0405.0231s-.0159.0282-.0156.0445c.0313 2.0741.0286 4.497-.0081 7.2686-.0145 1.0917-.1983 2.1208-.5515 3.0872-.2936.8021-.787 1.4117-1.4804 1.8289-.5863.3537-1.303.5569-2.15.6096-.7836.0481-1.5397-.0558-2.2682-.3117-.5787-.2032-1.0695-.5332-1.4723-.9901-.3356-.3804-.6093-.8843-.8211-1.5115-.2645-.7868-.3971-1.605-.3979-2.4545-.0023-2.502-.0034-5.0169-.0034-7.5448 0-.01-.002-.0198-.0058-.029-.0038-.0091-.0094-.0175-.0164-.0245s-.0154-.0126-.0245-.0164c-.0092-.0038-.0191-.0058-.029-.0058h-.8325c-.0117 0-.0233-.0022-.0341-.0065-.0107-.0042-.0205-.0105-.0287-.0184-.0083-.0079-.0147-.0172-.0191-.0275s-.0065-.0213-.0064-.0324l.0092-.7815c0-.0154.0065-.0302.018-.0413.0116-.0111.0273-.0177.0439-.0183 1.3691-.0366 2.7383-.0343 4.1074.0069.017.0006.0332.0069.0451.0178s.0188.0254.0192.0407l.0183.7964c.0002.0074-.0013.0149-.0042.0218s-.0073.0133-.0128.0186c-.0056.0053-.0122.0096-.0195.0125s-.0152.0044-.0231.0044l-.805.0137c-.0208.0003-.0406.0088-.0552.0236s-.0228.0347-.0228.0555c0 2.3782-.0004 4.7178-.0011 7.0188-.0008 1.0817.0783 2.0248.2373 2.8293.1369.6906.4713 1.2074 1.0034 1.5504.4801.3102 1.0335.4557 1.6604.4366.912-.0275 1.6153-.4893 2.1099-1.3854.1315-.2391.2477-.5332.3486-.8824.0803-.2773.1395-.5859.1777-.9259.0788-.6959.1159-1.4946.1113-2.3961-.01-2.0894-.0027-4.1792.0218-6.2694-.0001-.0142-.0058-.0278-.016-.0381-.0103-.0102-.0243-.0163-.0391-.0169z"/><path d="m42.9211 24.7023-.0149 5.1865c0 .0165.006.0324.0167.0442.0107.0117.0253.0185.0407.0188l.829.0115c.0246.0003.0481.0094.0653.0253s.0267.0373.0264.0595l-.0114.8445c-.0004.0153-.0071.0298-.0188.0407-.0117.0108-.0276.0172-.0443.0178-1.3882.0359-2.7765.0332-4.1648-.008-.0158-.0004-.0308-.0067-.0418-.0177-.0109-.0109-.0169-.0256-.0166-.0408l.0194-.809c.0002-.0075.0019-.015.0051-.0219s.0078-.0131.0135-.0183c.0058-.0052.0126-.0093.02-.0121.0074-.0027.0154-.004.0234-.0039l.7648.0058c.0134.0001.0266-.0024.039-.0075.0124-.005.0236-.0125.0331-.022s.017-.0208.0222-.0332c.0051-.0125.0078-.0258.0078-.0393l-.0069-11.598c0-.0197-.0079-.0387-.0218-.0526-.014-.014-.033-.0218-.0527-.0218h-.8039c-.0164 0-.0321-.0067-.0438-.0185-.0116-.0118-.0181-.0278-.0181-.0446l-.0092-.7998c0-.0141.0054-.0276.0151-.0377.0096-.0101.0227-.0159.0365-.0162 1.5366-.0275 3.0762-.0389 4.6189-.0344 1.0993.0039 1.7755.0249 2.0285.0631.6956.1039 1.3401.3449 1.9333.723.7423.4737 1.2147 1.1605 1.4173 2.0604.2569 1.1406.0069 2.1425-.7499 3.0058-.5588.6371-1.2094 1.0672-1.9517 1.2903-.0204.0062-.0394.0165-.0557.0302-.0163.0138-.0295.0308-.039.0499s-.0149.04-.016.0613c-.001.0213.0023.0426.0098.0626.3746.9924.8122 1.8759 1.313 2.6505.594.9206 1.2506 1.7941 1.97 2.6207.0112.0131.0253.0237.0415.0312s.0341.0117.0525.0124l.9185.0252c.0151.0003.0296.0068.0402.0181.0107.0114.0169.0266.0171.0426l.0207.8125c.0006.0199-.0065.0392-.0198.0538s-.0317.0232-.0513.0241c-1.0122.0489-1.9922.0512-2.9401.0069-.0177-.0007-.035-.0054-.0508-.0137-.0159-.0083-.0299-.0201-.041-.0344-1.4356-1.8809-2.6301-3.9371-3.5834-6.1686-.0111-.026-.0295-.0482-.053-.0637s-.0509-.0236-.0788-.0233l-1.4036.0045c-.015.0003-.0293.0065-.0398.0172s-.0164.0251-.0164.0401zm3.4401-6c-.3096-.2712-.5986-.4122-.8669-.4229-.7736-.0313-1.6012-.0401-2.4826-.0263-.026.0006-.0508.0112-.069.0296-.0183.0184-.0285.0432-.0285.0689v5.2094c0 .0099.002.0198.0058.0289.0038.0092.0094.0175.0164.0246.007.007.0154.0126.0246.0164.0091.0038.019.0057.0289.0057h1.2499c.74 0 1.1551-.0095 1.2453-.0286.4243-.0886.7928-.3251 1.1054-.7094.5-.6142.7534-1.2819.7603-2.003.0046-.4248-.0761-.8224-.242-1.1929-.1712-.3813-.4204-.7147-.7476-1.0004z"/><path d="m60.2802 18.2577-.8026-.0241c-.0168-.0006-.0326-.0073-.0444-.0188-.0117-.0115-.0184-.0269-.0187-.0431l-.0126-.7735c-.0003-.0151.0059-.0297.0173-.0408.0113-.0111.0269-.0178.0434-.0188.9503-.0542 1.9009-.0546 2.8519-.0011.0168.0009.0327.0077.0442.0191.0116.0113.0179.0262.0177.0416l-.0126.7747c-.0003.0158-.0071.0309-.0188.0422s-.0276.0179-.0443.0185l-.8027.0252c-.0153.0003-.0299.0064-.0406.0169s-.0167.0246-.0167.0393v12.5479c.0001.0161-.0057.0316-.0162.0434-.0104.0117-.0248.0187-.04.0196l-1.0309.0447c-.048.002-.0963-.01-.1395-.0349-.0433-.0248-.0799-.0615-.1059-.1061l-6.0579-10.5035c-.0658-.1139-.0986-.1051-.0986.0263v9.525c0 .0251.0107.0492.0298.0672.019.018.045.0284.0722.029l.7798.0218c.0154.0003.0301.0073.041.0195s.0172.0286.0174.0458l.0127.8033c0 .0154-.0059.0301-.0166.0414-.0106.0113-.0252.0182-.0408.0193-.9303.0612-1.9012.0646-2.9126.0104-.0151-.0006-.0294-.0074-.0399-.019-.0105-.0115-.0163-.0269-.0163-.0429l.0081-.7758c.0004-.0355.0156-.0695.0425-.0949.027-.0255.0635-.0403.1019-.0415l.7397-.0195c.015-.0005.0292-.0079.0395-.0206.0103-.0126.0159-.0295.0155-.047-.0237-3.3934-.031-6.7869-.0218-10.1804 0-.0092.0107-.225.0321-.6474.0123-.2491-.0019-.4974-.0424-.7449-.0025-.0154-.0106-.0294-.023-.0394-.0124-.0101-.0283-.0156-.0447-.0156h-.774c-.0148 0-.029-.0061-.0397-.017s-.017-.0258-.0176-.0414l-.0252-.7907c-.0003-.0075.0008-.015.0034-.022.0025-.007.0064-.0134.0114-.0188.0051-.0055.0111-.0098.0178-.0129.0067-.003.0139-.0046.0213-.0048l2.924-.0309c.0286-.0003.0569.0072.0821.0219.0251.0147.0463.036.0613.0617l5.2621 9.0334c.0612.1054.0917.097.0917-.0252 0-2.3255 0-4.6651 0-7.0188 0-.0054.0096-.1849.0287-.5386.01-.1757.0012-.3514-.0264-.5271-.0021-.0155-.01-.0298-.0222-.0403-.0121-.0104-.0278-.0165-.0443-.017z"/><path d="m65.0528 30.0397.5458-.0229c.0085-.0005.0169.0006.0249.0032s.0154.0067.0216.0121c.0063.0053.0114.0117.0151.019.0036.0072.0057.015.0061.023l.0378.8021c.0006.0153-.0056.0302-.0172.0416-.0116.0113-.0276.0182-.0447.0192-.86.0473-1.7678.0462-2.7234-.0035-.0216-.0009-.042-.0102-.057-.026-.0149-.0158-.0233-.0369-.0232-.0588v-.7471c0-.022.0094-.0431.0261-.0588.0168-.0156.0395-.0246.0633-.0249l.8508-.0206c.0156-.0003.0311-.0066.0443-.0181.0132-.0116.0234-.0277.0291-.0461l3.9423-12.533c.0056-.0168.0156-.0317.029-.0431.0134-.0113.0296-.0186.0467-.021.3073-.0443.628-.0451.9621-.0023.0175.0021.0339.0091.0474.0203.0134.0112.0233.0261.0283.0427l4.026 12.4677c.0153.0473.0464.0887.089.1183s.0945.046.1484.0467l.7396.0115c.0156.0003.0306.007.0419.0187s.018.0275.0189.0443l.0378.7735c.0003.0076-.0009.0151-.0035.0222s-.0066.0135-.0118.019c-.0051.0055-.0113.0098-.0181.0128-.0069.0029-.0142.0044-.0216.0044l-3.963.0333c-.0164.0001-.0328-.0029-.048-.0089s-.0289-.0148-.0404-.026c-.0115-.0111-.0204-.0244-.0263-.0388-.0059-.0145-.0086-.03-.008-.0455l.0275-.8056c.0003-.007.0022-.014.0057-.0203.0034-.0064.0084-.0121.0146-.0168.0063-.0047.0135-.0083.0215-.0106.0079-.0023.0163-.0032.0247-.0027l.5573.0321c.0076.0003.0151-.0013.0219-.0047s.0127-.0085.0172-.0149.0074-.0139.0086-.0219.0006-.0161-.0018-.0239l-1.1054-3.4893c-.0049-.0163-.0151-.0306-.0289-.0407-.0139-.0101-.0307-.0155-.0479-.0155h-3.158c-.0323.0001-.0635.0101-.0893.0286-.0258.0186-.0447.0447-.0541.0746l-1.071 3.4721c-.0018.0059-.0022.0121-.001.0182.0013.006.004.0117.0081.0165.0041.0049.0093.0088.0153.0113.0059.0025.0124.0037.0189.0033zm2.7039-8.709c-.4824 1.3598-.9177 2.7112-1.3061 4.0543-.0028.0097-.0034.0201-.0016.0301.0017.01.0058.0195.0118.0276.006.0082.0138.0147.0228.0192s.0189.0068.029.0067l2.5479-.0252c.0065-.0001.0129-.0017.0186-.0049.0058-.0032.0107-.0077.0144-.0133s.006-.0121.0069-.0189c.0008-.0068.0001-.0137-.0021-.0202l-1.2831-4.0543c-.0184-.0588-.0378-.0592-.0585-.0011z"/><path d="m78.0686 29.9612c1.4395.0076 2.879.0103 4.3184.008.2424-.0007.4259-.042.5505-.1237.1681-.11.2931-.2674.3749-.4722.107-.2719.1984-.5496.2741-.833.004-.0153.0133-.0288.0263-.0385.0131-.0097.0292-.0151.0459-.0154l.8428-.0103c.0072-.0003.0144.0011.021.0039s.0125.0071.0173.0124c.0049.0054.0084.0117.0105.0186s.0027.0141.0017.0212l-.3245 2.3251c-.0044.0315-.0199.0602-.0435.0811-.0236.0208-.0537.0323-.085.0324l-9.3638-.0275c-.0077-.0002-.0153-.0018-.0223-.0048-.007-.0031-.0134-.0074-.0187-.0128-.0054-.0055-.0095-.0119-.0123-.0189s-.0042-.0145-.0041-.022l.0012-.801c0-.0307.0123-.0601.0342-.0818.022-.0217.0517-.0339.0828-.0339h.7694c.0155 0 .0304-.0062.0413-.0171.011-.011.0172-.0259.0172-.0414v-11.583c0-.0201-.008-.0393-.0222-.0535s-.0334-.0221-.0535-.0221h-.7534c-.0145 0-.0289-.0027-.0422-.0079-.0134-.0051-.0255-.0127-.0356-.0222-.0102-.0095-.0182-.0208-.0235-.0331s-.0079-.0255-.0076-.0388l.0126-.7575c.0003-.0155.0073-.0303.0195-.0414.0121-.0111.0286-.0176.0458-.0182 1.3195-.0435 2.6757-.0416 4.0685.0058.016.0006.0312.0073.0423.0189.0111.0115.0173.0269.0173.043v.7941c0 .0153-.0062.03-.0174.0409-.0111.0109-.0263.0172-.0422.0175l-.7648.0046c-.0152 0-.0298.0062-.0406.0171-.0107.011-.0168.0258-.0168.0413v11.5888c0 .0075.0015.015.0045.0219.0029.007.0072.0133.0127.0186.0054.0053.0118.0096.0189.0124.0071.0029.0147.0044.0224.0044z"/></g></svg>
