<svg fill="none" height="37" viewBox="0 0 119 37" width="119" xmlns="http://www.w3.org/2000/svg"><g fill="#fff"><path d="m10.4707 5.59993c.4 1.2.3 2.5-.5 3.6 1.1.8 1.7 1.89997 1.6 3.19997h.4c3.1 0 7.2-2.79997 8.7-4.99997-2.1-1.7-7.2-3.1-10.2-1.9"/><path d="m4.5707 9.8c.8-.9 1.7-1.4 2.9-1.4h.4c0-1.4.8-2.4 2-3.1-1.4-2.9-6.2-5.1-8.899997-5.3v1.1c0 2.8 1.299997 7 3.599997 8.7z"/><path d="m8.27148 8.49922c.5 0 .9.2 1.3.5.50002-.7.70002-1.4.70002-2.2s0-.7-.2-1.1c-1.00002.5-1.70002 1.4-1.80002 2.7"/><path d="m11.1723 11.7996c0-.6-.3-1.1-.7-1.5-.2-.29999-.50004-.49999-.80004-.69999-.3.4-.69999.69999-1.09999.89999.6 1.2 1.50003 1.8 2.60003 2v-.6"/><path d="m11.1719 12.7008c-1.19995-.2-2.09996-.8-2.69996-1.8 0 0 .00001-.2-.19999-.4-1.3.6-2.5.5-3.7-.2-1.8 2.7-1.4 7.9-.2 10.3.2 0 .4-.2.7-.3h.2c2.4-1.4 5.39995-4.6 5.69995-7.4"/><path d="m7.86992 8.79961h-1.9s0 0-.2 0h-.2s0 0-.2 0c0 0 0 .2-.2.3v.3c.5.3 1.1.5 1.8.5s1 0 1.5-.4c-.2-.5-.2-.9-.2-1.4"/><path d="m8.67148 8.90039h-.4c0 .4 0 .8.2 1.20001.3-.20001.7-.40001.9-.80001h-.2c-.2 0-.3 0-.5-.2"/><path d="m32.2699 29.7004c.3.4.4.8.4 1.3v4h-.9v-3.8c0-.3 0-.6-.2-.8s-.4-.2-.6-.2c-.3 0-.6 0-.8.2s-.5.5-.6.7v3.9h-.9v-5.5h.8v.8c.3-.3.5-.5.8-.7s.6-.2.9-.2.9.1 1.2.5"/><path d="m37.6691 30.0012c.4.6.7 1.4.6 2.1 0 .5 0 1-.3 1.5-.2.4-.5.8-.8 1-.4.2-.8.4-1.3.4s-1.4-.2-1.8-.8c-.5-.6-.7-1.3-.7-2.1s0-1 .3-1.5c.2-.4.5-.8.8-1 .4-.2.8-.4 1.3-.4s1.4.2 1.8.8m-3.1 2.2c0 1.4.5 2.1 1.4 2.1s1.4-.7 1.4-2.1-.5-2.1-1.4-2.1-1.4.7-1.4 2.1z"/><path d="m42.0707 34.7008c-.4.2-.8.4-1.2.4s-.8-.1-1.1-.4-.4-.7-.4-1.2v-3.3h-.9v-.8h.9v-1.2h.9c0-.1 0 1.2 0 1.2h1.3v.8h-1.3v3.3c0 .2 0 .5.2.6 0 .2.3.2.5.2.3 0 .5 0 .7-.2z"/><path d="m43.5691 26.9012c0 .1.2.3.2.5s0 .3-.2.5c0 .1-.3.2-.5.2s-.3 0-.5-.2c0-.1-.2-.3-.2-.5s0-.4.2-.5c0-.1.3-.2.5-.2s.4 0 .5.2zm0 2.5v5.5h-.9v-5.5z"/><path d="m47.7676 27.2006c.2 0 .5.2.7.3l-.3.7c-.4-.2-.8-.3-1.2-.3s-.6 0-.8.2-.2.4-.2.6v.7h3.1v5.5h-.9v-4.8h-2.1v4.8h-.9v-4.8h-.9v-.8h.9v-.7c0-.5 0-.9.5-1.2.4-.3.9-.5 1.4-.4.3 0 .5 0 .8.1"/><path d="m54.1698 32.5008h-3.5c0 .5.2 1 .5 1.3s.6.5 1 .4c.2 0 .5 0 .7-.1.2 0 .5-.2.7-.4l.4.6c-.6.5-1.2.7-1.9.7s-1.3-.2-1.8-.8c-.4-.6-.7-1.3-.6-2.1 0-.5 0-1 .3-1.5.2-.4.4-.8.8-1 .9-.6 2.2-.5 2.9.4.4.6.6 1.3.6 2v.5m-1-.8c0-.4 0-.9-.3-1.2-.2-.3-.6-.5-1-.4-.8 0-1.2.6-1.3 1.7h2.6z"/><path d="m59.3699 27.2016v7.7h-.8v-.8c-.3.3-.5.5-.8.7-.8.5-1.9.2-2.5-.5-.4-.6-.6-1.3-.6-2.1s0-1 .3-1.5c.2-.4.4-.8.8-1 .3-.2.7-.4 1.2-.4s1.1.2 1.5.7v-2.9h1c0 .1-.1 0-.1 0zm-1.5 6.9c.2-.2.5-.4.6-.6v-2.7c-.2-.2-.4-.4-.6-.5s-.4-.2-.7-.2-.8.2-1 .5c-.3.5-.4 1-.3 1.6 0 .5 0 1.1.3 1.6.2.3.6.5.9.5s.5 0 .7-.2z"/><path d="m23.4691 12.1004c.5.2 1.1.5 1.6.9l-.7.7c-.4-.4-.9-.6-1.3-.8-.4 0-.9-.2-1.4-.2s-1.4.2-2 .6-1.1 1-1.5 1.8-.6 1.9-.6 3.1c0 1.9.3 3.2 1.1 4.1.7.9 1.7 1.4 2.9 1.4s1.8-.2 2.6-.6v-4.4h-2.4v-.9h3.5v5.9c-1.2.7-2.4 1-3.7 1s-2.8-.5-3.8-1.6-1.4-2.7-1.4-4.8.2-2.5.7-3.5 1.1-1.7 1.9-2.2 1.7-.7 2.6-.7 1.3 0 1.8.3"/><path d="m27.1676 24.2012c-.3-.3-.4-.8-.4-1.3v-11.7h1.1v11.7c0 .6.2.9.8.9s.5 0 .7-.1l.3.8c-.3.2-.7.2-1.1.2s-.9-.1-1.2-.5"/><path d="m31.3684 16.7012c-.5.7-.8 1.7-.8 3s.2 2.3.8 3 1.2 1 2.1 1 1.6-.4 2.2-1 .8-1.7.8-3-.2-2.3-.8-3c-.5-.7-1.2-1-2.2-1s-1.6.4-2.1 1zm5.1-.7c.7.9 1.1 2.1 1.1 3.6s-.4 2.7-1.1 3.6-1.7 1.3-2.9 1.3-2.2-.4-2.9-1.3-1.1-2.1-1.1-3.6.2-1.9.5-2.6.8-1.3 1.4-1.7 1.3-.6 2.1-.6c1.2 0 2.2.4 2.9 1.3z"/><path d="m44.2676 22.7c.5-.7.7-1.7.7-3.1 0-2.7-.8-4-2.6-4s-1.1 0-1.5.4c-.4.3-.8.7-1.2 1.2v5c.3.5.7.8 1.1 1.1s.9.4 1.4.4c.8 0 1.5-.4 2-1m1.1-6.7c.6.9.9 2.1.9 3.6s-.3 2.8-.9 3.6-1.5 1.3-2.7 1.3-1.1-.1-1.6-.4c-.5-.2-.8-.6-1.2-1v1.2h-1v-13.3h1.1v5.2c.8-1 1.7-1.5 2.8-1.5s1.9.4 2.6 1.3z"/><path d="m53.3707 19.0008c0-1.1-.2-1.9-.7-2.5s-1.1-.9-2-.9-1.4.3-1.9.9-.8 1.5-.8 2.8h5.3v-.3zm1 1.1h-6.3c0 1.2.3 2.1.9 2.7.5.6 1.2.9 2.1.9s.9 0 1.3-.2c.4-.1.8-.4 1.2-.7l.5.7c-.5.4-.9.7-1.4.9s-1.1.3-1.7.3c-1.2 0-2.2-.4-2.9-1.3s-1.1-2-1.1-3.6.2-1.9.5-2.6.8-1.3 1.3-1.8c.6-.4 1.2-.6 2-.6 1.2 0 2.1.4 2.8 1.2.6.8.9 1.9.9 3.4v.8"/><path d="m64.0684 24.4h-1.4l-5.8-11.2c0 1.5.2 2.9.2 4.3v6.9h-1v-12.4h1.4l5.9 11.2c0-1.4-.2-2.6-.2-3.7v-7.5h1v12.4z"/><path d="m71.6691 19.0008c0-1.1-.2-1.9-.7-2.5s-1.1-.9-2-.9-1.4.3-1.9.9-.8 1.5-.8 2.8h5.3v-.3zm1 1.1h-6.3c0 1.2.3 2.1.9 2.7.5.6 1.2.9 2.1.9s.9 0 1.3-.2c.4-.1.8-.4 1.2-.7l.5.7c-.5.4-.9.7-1.4.9s-1.1.3-1.6.3c-1.2 0-2.2-.4-2.9-1.3s-1.1-2-1.1-3.6.2-1.9.5-2.6.8-1.3 1.3-1.8c.6-.4 1.2-.6 2-.6 1.2 0 2.1.4 2.8 1.2.6.8.9 1.9.9 3.4v.8"/><path d="m84.3699 14.9004-2.3 9.5h-1.4l-2.1-8.5-2.2 8.5h-1.4l-2.3-9.5h1.1l2 8.7 2.2-8.7h1.2l2.2 8.7 2-8.7z"/><path d="m89.2684 15.0016c.5.2.9.4 1.4.8l-.5.7c-.4-.3-.9-.5-1.2-.7s-.8-.2-1.3-.2-1.1 0-1.5.4c-.4.3-.6.7-.6 1.1s.2.8.5 1.1.9.5 1.8.7c1.1.3 1.9.6 2.3 1 .5.4.7 1 .7 1.8s-.3 1.5-1 2c-.6.5-1.5.7-2.4.7s-1.4-.1-1.9-.3-1-.5-1.5-.9l.6-.7c.4.3.9.6 1.3.8s.9.2 1.5.2 1.3-.2 1.7-.5.6-.8.6-1.3 0-.7-.2-.9-.4-.5-.7-.6c-.4-.2-.9-.4-1.5-.5-1-.3-1.7-.6-2.2-1-.4-.4-.7-.9-.7-1.6s.1-.9.4-1.3.6-.7 1.1-.9 1-.3 1.6-.3 1.1 0 1.6.3"/><path d="m102.968 14.9004-2.3 9.5h-1.4004l-2.1-8.5-2.2 8.5h-1.4l-2.3-9.5h1l2.1 8.7 2.2-8.7h1.2l2.1 8.7 2.0004-8.7z"/><path d="m105.068 24.4008h-1.1v-9.5h1.1zm.1-13.4c.1 0 .2.3.2.6s0 .4-.2.6-.3.2-.6.2-.4 0-.6-.2-.2-.3-.2-.6 0-.4.2-.6.3-.2.6-.2.4 0 .6.2z"/><path d="m111.968 14.8012-.2 1c-.3 0-.5 0-.8 0-.6 0-1.1.2-1.6.7-.4.5-.7 1.2-1 2.2v5.8h-1.1v-9.5h.9v2.1c.3-.8.7-1.4 1.1-1.8s1-.6 1.6-.6h.9"/><path d="m117.568 19.0008c0-1.1-.2-1.9-.7-2.5s-1.1-.9-2-.9-1.4.3-1.9.9-.8 1.5-.8 2.8h5.3v-.3zm1 1.1h-6.3c0 1.2.4 2.1.9 2.7s1.2.9 2.1.9.9 0 1.3-.2c.4-.1.8-.4 1.2-.7l.5.7c-.5.4-.9.7-1.4.9s-1.1.3-1.6.3c-1.2 0-2.2-.4-2.9-1.3s-1.1-2-1.1-3.6.1-1.9.5-2.6c.3-.8.8-1.3 1.3-1.8.6-.4 1.2-.6 2-.6 1.2 0 2.1.4 2.8 1.2.6.8.9 1.9.9 3.4v.8"/><path d="m20.8676 33.9004c.2-.4.4-1 .4-1.7 0-1.5-.5-2.2-1.4-2.2s-.6 0-.8.2c-.2.1-.4.4-.6.7v2.8c.2.3.4.5.6.6.2.2.5.2.8.2.5 0 .8-.2 1.1-.6m.4-3.7c.3.5.5 1.1.5 2s-.2 1.5-.5 2-.8.7-1.5.7-.6 0-.8-.2-.5-.3-.7-.6v.7h-.6v-7.4h.6v2.9c.4-.6.9-.8 1.6-.8s1.1.2 1.4.7z"/><path d="m24.3676 34.9012c0 .4-.3.7-.5 1s-.4.5-.7.7-.6.3-1 .4v-.5c.3 0 .6-.2.8-.3s.3-.3.5-.5.2-.5.3-.8h-.2l-1.8-5.2h.6l1.6 4.8 1.6-4.8h.6l-1.8 5.3z"/></g></svg>