<svg fill="none" height="24" viewBox="0 0 123 24" width="123" xmlns="http://www.w3.org/2000/svg"><g fill="#000"><path d="m0 18.0481c.236122.029.462599.0544.688057.0843.677393.0914 1.354783.0731 2.029633-.0152 1.00949-.132 1.97429-.4215 2.87206-.9039 2.17892-1.1714 3.6312-2.9411 4.32839-5.3201.25086-.8566.35496-1.7346.32496-2.62576-.0132-.3971-.0477-.79419-.1264-1.18519-.0244-.12136-.0051-.15893.1305-.11069.9775.34834 1.8666.84547 2.6557 1.52336.9816.84298 1.7153 1.86458 2.2064 3.05638.3285.7972.5144 1.6295.5783 2.4943.0788 1.0628-.0568 2.0931-.3915 3.098-.4174 1.2517-1.1039 2.3368-2.0565 3.2539-.9826.946-2.1312 1.599-3.44231 1.9641-.80434.224-1.62645.3276-2.46227.2869-1.8057-.0878-3.41692-.6946-4.81384-1.8458-1.18569-.9775-2.010343-2.2078-2.5049304-3.6606-.00863239-.0254-.00914055-.0533-.0162496-.094z"/><path d="m34.708 15.8519c-.0147 1.4599-.4047 2.7892-1.171 3.9744-.7662 1.2142-1.8067 2.1536-3.1219 2.833-1.3151.6941-2.7029 1.041-4.177 1.041-1.1131 0-2.1825-.2027-3.2088-.5926-.983-.3616-1.8935-.911-2.7319-1.6625-.7952-.7226-1.4309-1.5752-1.8788-2.5436-.4479-.9394-.6647-1.9946-.6647-3.1508s.2311-2.1535.6794-3.1361c.4479-.9684 1.0694-1.8067 1.8646-2.5293.7952-.7373 1.7057-1.28622 2.7319-1.66199 1.0405-.37576 2.1104-.56365 3.2088-.56365 1.0983 0 2.1535.18789 3.194.56365l.3326.14472.3326.14472v-6.09957l4.6107.01473v13.22539zm-6.5764-3.3098c-.5926-.3326-1.2283-.5058-1.8935-.5058-.6653 0-1.3152.1737-1.9078.5058-.5784.3326-1.0552.7805-1.431 1.3588-.3615.5637-.5347 1.171-.5347 1.8499 0 1.0263.3905 1.9225 1.1563 2.6593.7662.7373 1.6767 1.1131 2.7172 1.1131 1.0404 0 1.9367-.3758 2.7029-1.1131.7663-.7373 1.1563-1.633 1.1563-2.6593 0-.6794-.1737-1.2862-.5347-1.8499-.3758-.5778-.8526-1.0262-1.431-1.3588z"/><path d="m47.7418 8.42314c.9826.38998 1.8499.93941 2.6161 1.64776.7663.7084 1.3589 1.5467 1.7925 2.5293.4337.9684.6505 2.0088.6505 3.1219v.2026l-.0147.0868-.029.2458h-1.7925v.029h-9.944c.1158.8094.4626 1.503 1.0552 2.0956.7373.7373 1.6046 1.0984 2.6019 1.0984s1.8646-.3616 2.6014-1.0984l.0289-.0289.0432-.0579.0432-.0437.0289-.0437 2.4862 3.5556c-.6937.5636-1.4168 1.012-2.1683 1.3152-.9684.3899-1.9946.5778-3.064.5778-1.431 0-2.7751-.3468-4.0034-1.0262-1.2573-.6942-2.2546-1.6478-2.9919-2.8477-.7516-1.1994-1.1273-2.5583-1.1273-4.0618 0-1.1273.2168-2.1683.6505-3.1219.4336-.9684 1.0262-1.8067 1.792-2.5151.7662-.7373 1.633-1.28622 2.6019-1.66199.9825-.39049 2.0088-.57786 3.0787-.57786s2.0956.18788 3.064.57786zm-.2316 4.98596c-.3178-.3757-.6504-.6794-1.012-.8962-.5636-.3326-1.1709-.4916-1.8209-.4916s-1.2573.159-1.8215.4916c-.3615.2168-.6936.5205-1.012.8962h5.6659z"/><path d="m62.2344 12.2819c-.26-.1737-.5784-.2605-.9394-.2747h-.26c-1.171.0431-1.7636.8673-1.7636 2.4571v8.7589h-4.6249v-8.7589c0-4.206 2.1246-6.4174 6.3885-6.63422h.26c.3321.01472.6357.04316.9394.08683z"/><path d="m66.3373 6.6738c-.4479 0-.8383-.10105-1.1999-.31787-.3615-.21683-.6505-.50576-.8673-.88153-.2168-.39049-.3326-.80941-.3326-1.22834 0-.44787.1011-.85308.3179-1.21412.231-.37577.5205-.6647.8815-.88203.3615-.21683.7515-.31788 1.1999-.31788s.8526.10105 1.2141.31788c.3611.21682.6505.52048.8673.88203.2169.36104.3179.76625.3179 1.21412s-.101.86731-.3179 1.22834c-.2168.36155-.5057.65049-.8673.86731-.3615.21683-.7662.3326-1.2141.3326zm2.3846 1.76356v14.81524h-4.6107v-14.80052z"/><path d="m70.8008 2.71395 4.6107-.01473v20.49538l-4.6107.0579z"/><path d="m89.6154 22.791c-.3616.1589-.5926.2457-.6794.2747-1.0405.39-2.1104.5926-3.2088.5926-1.4599 0-2.8619-.3469-4.177-1.0263-1.3152-.6941-2.3562-1.6335-3.1219-2.8329-.7805-1.2142-1.1705-2.5725-1.1705-4.0618 0-1.1126.2311-2.1683.6794-3.1509.4479-.9683 1.0694-1.8067 1.8646-2.5151.7952-.70832 1.691-1.25725 2.7177-1.63301 1.0405-.39049 2.1104-.59259 3.2088-.59259 1.0983 0 2.1824.18789 3.2087.57787 1.0552.38998 1.9509.93941 2.7172 1.64773.7952.7374 1.4309 1.5757 1.8788 2.5151.4478.9826.6794 2.0383.6794 3.1509l-.0147 7.5305-4.5818-.0432v-.4336zm-3.8882-10.7682c-.6794 0-1.3009.1589-1.8935.4915-.5779.3326-1.0552.7805-1.431 1.3589-.361.5636-.5347 1.1851-.5347 1.8646 0 1.0262.39 1.9077 1.1563 2.645.7662.7374 1.6625 1.0984 2.7029 1.0984 1.0405 0 1.951-.3616 2.7172-1.0984.7663-.7368 1.1563-1.6188 1.1563-2.645 0-.6795-.1737-1.3005-.5347-1.8646-.3758-.5779-.8526-1.0263-1.431-1.3589-.5926-.3326-1.2283-.4915-1.9078-.4915z"/><path clip-rule="evenodd" d="m3.69567 7.70508.55147 1.70922 1.79605-.00356-1.45482 1.05316.55806 1.7067-1.45076-1.0583-1.45126 1.0583.55857-1.7067-1.45532-1.05316 1.79605.00356z" fill-rule="evenodd"/><path clip-rule="evenodd" d="m9.21521.298828.55145 1.709212 1.79604-.00355-1.4553 1.05265.5586 1.70719-1.45079-1.05874-1.45127 1.05874.55857-1.70719-1.45532-1.05265 1.79605.00355z" fill-rule="evenodd"/><path d="m101.138 5.81042c.405.16046.762.38693 1.078.67891.315.29147.559.63728.738 1.04199.179.39861.268.8277.268 1.28623v.08328l-.006.03554-.012.10105h-.738v.01168h-4.0965c.0478.33362.1904.61899.4347.86324.3037.30366.6611.45246 1.0719.45246.4109 0 .7679-.1488 1.0719-.45246l.012-.01168.018-.02386.017-.01777.012-.01778 1.024 1.46445c-.286.2321-.583.4169-.893.5418-.399.1605-.822.2382-1.2624.2382-.5895 0-1.143-.1427-1.6493-.4225-.5179-.2859-.9287-.6789-1.2324-1.173-.3097-.49407-.4646-1.05366-.4646-1.67316 0-.46412.0894-.8932.2681-1.28623.1788-.39913.4225-.74442.7383-1.03589.3154-.30366.6729-.53014 1.072-.6845.4047-.16097.8277-.23815 1.2684-.23815.4409 0 .8629.07718 1.2629.23815zm-.095 2.05452c-.131-.15488-.268-.2798-.417-.36917-.232-.1371-.482-.20261-.7499-.20261-.2676 0-.5179.06551-.75.20261-.1487.08937-.2858.21429-.4169.36917z"/><path d="m107.108 7.4064c-.107-.0716-.238-.10714-.387-.11323h-.107c-.483.01777-.726.35697-.726 1.01202v3.60831h-1.906v-3.60831c0-1.73258.876-2.64355 2.632-2.73292h.107c.138.00609.262.01777.387.03554v1.79808z"/><path d="m122.245 8.67181c0-.00305 0-.00558 0-.00863-.003-.04722-.006-.09394-.011-.14015-.001-.01422-.002-.02844-.004-.04265-.004-.03961-.009-.07922-.014-.11832-.035-.2478-.099-.4824-.191-.70227-.07-.17011-.156-.33463-.258-.49256-.006-.01066-.014-.02031-.021-.03047-.011-.01726-.023-.03453-.035-.05129-.238-.35392-.535-.64844-.893-.88558-.235-.16046-.482-.28842-.742-.38389h-.001c-.027-.01015-.054-.01929-.081-.02894-.028-.01016-.057-.02082-.086-.02996-.046-.01574-.094-.02946-.141-.04317-.007-.00203-.014-.00406-.021-.00609-.156-.04367-.314-.07667-.474-.09902-.004-.0005-.008-.00101-.011-.00152-.042-.00559-.085-.01066-.128-.01472-.027-.00254-.054-.00508-.081-.00762-.034-.00254-.067-.00508-.1-.00711-.057-.00305-.114-.00457-.171-.00508-.007 0-.013-.0005-.02-.0005-.001 0-.002 0-.003 0s-.002 0-.003 0c-.007 0-.013.0005-.02.0005-.057 0-.114.00203-.17.00508-.034.00152-.067.00406-.1.00711-.028.00203-.055.00457-.082.00762-.043.00406-.085.00913-.128.01472-.003.00051-.007.00102-.011.00152-.16.02235-.318.05535-.474.09902-.007.00203-.014.00406-.021.00609-.047.01371-.094.02794-.141.04317-.029.00965-.057.0198-.086.02996-.027.00965-.054.01828-.081.02894h-.001c-.26.09547-.507.22343-.742.38389-.357.23714-.655.53216-.893.88558-.012.01727-.024.03403-.035.05129-.006.01067-.014.02031-.021.03098-.013.02183-.026.04367-.039.0655-.008.0127-.016.02539-.023.03809-.024.04011-.046.08074-.068.12136-.003.00559-.006.01117-.009.01726-.022.04164-.042.08328-.062.12543-.002.00457-.005.00914-.007.01371-.006.0132-.011.0264-.017.03961-.01.02132-.019.04265-.028.06398-.153.36053-.228.76016-.228 1.19432 0 .45853.095.8871.279 1.2918.185.3991.441.7444.769 1.042.327.3037.702.5301 1.125.6845.428.1549.869.2321 1.316.2321h.003.003c.109 0 .218-.0051.326-.0143.018-.0015.037-.004.056-.0061.034-.0035.068-.0066.102-.0111.034-.0046.068-.0097.102-.0153.017-.0025.035-.005.053-.0081.044-.0071.087-.0157.13-.0249.008-.0015.016-.003.023-.0045.049-.0102.097-.0219.146-.0341.003-.0005.005-.001.007-.0015.125-.0315.249-.069.371-.1132.423-.1549.798-.3809 1.125-.6845.328-.2976.584-.6429.768-1.042.178-.38947.272-.80078.279-1.23951 0-.00051.001-.00153.001-.00204v-.0919c0-.04469-.002-.08887-.004-.13254zm-4.861.93637c-.149-.23206-.22-.48241-.22-.7622 0-.42299.161-.79215.476-1.0958.315-.30316.689-.45752 1.117-.45854.4.00051.754.13659 1.056.40318.021.01777.04.03606.06.05536.316.30365.477.67281.477 1.0958 0 .27979-.072.52963-.221.7622-.155.23815-.351.42252-.589.55962-.244.1366-.505.2076-.783.2082-.279 0-.54-.0722-.783-.2082-.239-.1371-.435-.32147-.59-.55962z"/><path d="m114.542 8.67181c0-.00254 0-.00558 0-.00812-.002-.04723-.006-.09394-.01-.14015-.001-.01422-.002-.02844-.004-.04265-.001-.01524-.004-.02997-.005-.0452-.002-.01929-.005-.03808-.007-.05738-.001-.00558-.001-.01067-.002-.01625-.001-.00711-.003-.01371-.004-.02082-.034-.25186-.094-.49611-.182-.72766-.006.00609-.012.01269-.019.01878-.067-.16046-.148-.31584-.244-.46563-.007-.01067-.015-.02032-.021-.03048-.011-.01726-.024-.03453-.035-.05128-.238-.35393-.536-.64845-.893-.88559-.235-.16046-.483-.28842-.742-.38389h-.001c-.027-.01066-.055-.01929-.082-.02894-.028-.01015-.057-.02082-.085-.02996-.047-.01574-.094-.02945-.142-.04316-.007-.00203-.014-.00406-.021-.00609-.155-.04367-.313-.07668-.474-.09902-.003 0-.007-.00102-.011-.00153-.042-.00558-.085-.01066-.128-.01472-.027-.00254-.054-.00508-.081-.00711-.034-.00254-.067-.00508-.101-.00711-.056-.00305-.113-.00457-.17-.00508-.007 0-.013-.0005-.02-.0005-.001 0-.002 0-.003 0s-.002 0-.003 0c-.007 0-.013.0005-.02.0005-.057 0-.114.00203-.17.00508-.034.00152-.067.00457-.101.00711-.027.00203-.054.00457-.081.00711-.043.00406-.086.00914-.128.01472-.003.00051-.007.00102-.011.00153-.16.02234-.318.05535-.474.09902-.007.00203-.014.00406-.021.00609-.047.01371-.094.02742-.141.04316-.029.00965-.058.01981-.086.02996-.027.00965-.054.01828-.081.02894h-.001c-.26.09547-.507.22343-.742.38389-.358.23714-.655.53216-.893.88559-.012.01675-.024.03402-.035.05128-.006.01067-.014.02032-.021.03098-.013.02133-.026.04367-.039.0655-.008.0127-.016.02539-.023.03809-.024.04011-.046.08074-.068.12136-.003.00559-.006.01117-.009.01726-.022.04164-.042.08329-.062.12543-.002.00457-.005.00914-.007.01371-.006.0132-.011.0264-.017.03961-.01.02132-.019.04265-.028.06398-.153.36053-.229.76016-.229 1.19432 0 .45854.096.88711.28 1.29181.185.3991.441.7444.769 1.042.327.3036.702.5301 1.125.6845.428.1549.869.2321 1.315.2321h.004.003c.109 0 .217-.0051.326-.0143.018-.0015.037-.004.056-.0061.034-.0035.068-.0066.102-.0111.034-.0046.068-.0097.102-.0153.017-.0025.035-.005.053-.0081.044-.0071.087-.0157.13-.0249.007-.0015.016-.003.023-.0045.049-.0102.097-.0219.146-.0341.003-.0005.005-.001.007-.0015.124-.0315.248-.069.371-.1132.118-.0432.232-.0924.343-.1473v.2275c0 1.0115-.865 1.8341-1.929 1.8341-.57 0-1.109-.2386-1.477-.6555l-.039-.0442-1.398 1.1192.042.0467c.715.8099 1.762 1.2745 2.873 1.2745 2.069 0 3.753-1.6036 3.753-3.5743v-2.93399c.002-.03758.004-.07516.004-.11273 0-.00051.001-.00153.002-.00203v-.09191c0-.04469-.002-.08886-.004-.13253zm-2.705 1.49649c-.243.1366-.504.2077-.783.2082-.278 0-.539-.0721-.783-.2082-.238-.1371-.434-.32146-.589-.55962-.149-.23206-.22-.4824-.22-.76219 0-.42299.161-.79215.476-1.09581.315-.30315.689-.45752 1.116-.45853.401.00051.755.13659 1.057.40318.021.01777.04.03606.06.05535.315.30366.476.67282.476 1.09581 0 .27979-.071.52963-.22.76219-.155.23816-.351.42252-.59.55962z"/></g></svg>