<svg fill="none" height="35" viewBox="0 0 35 35" width="35" xmlns="http://www.w3.org/2000/svg"><path d="m31.4388 11.4117c.0402-.3044.0612-.609.0612-.9117 0-4.16325-3.7502-7.504-7.9118-6.93875-1.2127-2.15775-3.5227-3.56125-6.0882-3.56125s-4.8755 1.4035-6.0883 3.56125c-4.1702-.56525-7.9117 2.7755-7.9117 6.93875 0 .3027.021.6073.06125.9117-2.15775 1.2146-3.56125 3.5245-3.56125 6.0883 0 2.5637 1.4035 4.8738 3.56125 6.0882-.04037.3023-.06083.6069-.06125.9118 0 4.1632 3.7415 7.4953 7.9117 6.9388 1.2128 2.1577 3.5228 3.5612 6.0883 3.5612s4.8755-1.4035 6.0882-3.5612c4.1616.5565 7.9118-2.7756 7.9118-6.9388 0-.3027-.021-.6073-.0612-.9118 2.1577-1.2144 3.5612-3.5245 3.5612-6.0882 0-2.5638-1.4035-4.8737-3.5612-6.0883zm-15.7676 13.8163-6.4172-6.4995 2.492-2.457 3.9497 4.0005 7.5723-7.5145 2.464 2.485z" fill="currentColor"/></svg>
