<svg fill="none" height="17" viewBox="0 0 117 17" width="117" xmlns="http://www.w3.org/2000/svg"><g fill="#fff"><path d="m17.4044 16.3355h11.1211v-2.9344h-7.7602v-3.59908h6.434v-2.93689h-6.434v-3.31352h7.8069v-2.934422h-11.1678z"/><path d="m41.9154 10.511-7.2853-9.893812h-5.0168l1.5624 1.989102v13.77851h3.3585v-10.3222l7.5239 10.2729h3.2183v-15.718312h-3.361z"/><path d="m12.3416 8.24864c1.4762-.2831 2.7064-1.65676 2.7064-3.59663-.0098-2.09496-1.523-4.034822-4.5518-4.034822h-9.748153l1.513163 1.939862v13.78585h8.57459c3.0312 0 4.5911-1.8931 4.5911-4.2613-.0566-1.9472-1.3926-3.60401-3.0853-3.83296zm-6.71946-4.67734h4.21224c1.13672 0 1.84532.66467 1.84532 1.65676s-.7086 1.65677-1.84532 1.65677h-4.21224zm4.35249 9.847h-4.35249v-3.61629h4.35249c1.27937 0 1.98797.80499 1.98797 1.79959 0 1.1348-.7578 1.7995-1.98797 1.7995z"/><path d="m94.4431 10.511h1.7518v1.8488c-.9061.7506-2.042 1.1676-3.2182 1.1816-2.7926 0-4.7781-2.1294-4.7781-5.01704s1.9855-5.01953 4.7781-5.01953c.7176.00595 1.4225.19097 2.0506.5383s1.1597.846 1.5465 1.4508l2.6499-1.47705c-1.1342-1.7897-3.1247-3.399692-6.2937-3.399692-4.4485 0-8.1391 3.077202-8.1391 7.860402 0 4.78321 3.6439 7.85791 8.1391 7.85791 1.2139.0202 2.4178-.2234 3.5286-.7138 1.1108-.4905 2.102-1.2162 2.9054-2.127v-5.82211h-7.1919z"/><path d="m79.3021 10.511-7.2877-9.893812h-5.0168l1.5623 1.989102v13.77851h3.361v-10.3222l7.524 10.2729h3.2157v-15.718312h-3.3585z"/><path d="m110.483.617188h-6.481l1.56 1.989102-.283.75576-5.017 13.02275h3.787l.984-2.6538h6.779l.984 2.6538h3.784zm-4.586 10.132612 2.46-6.77231 2.461 6.77231z"/><path d="m65.0592.617188h-3.3609v15.767612h3.3609z"/><path d="m59.0016 3.31528v-2.698092h-11.8321v2.934422h7.4304l-7.4304 10.08579v2.6981h11.9748v-2.9344h-7.6199z"/></g></svg>