<svg fill="none" height="29" viewBox="0 0 157 29" width="157" xmlns="http://www.w3.org/2000/svg"><g clip-rule="evenodd" fill="#fff" fill-rule="evenodd"><path d="m21.6669.541016v23.704284h-5.8048v-14.70434l-3.6635 5.95534h2.71v5.3866h-6.20628l-1.90705 3.1617h-6.60777l15.8586-23.503584z"/><path d="m22.5862 5.27519-.0335 23.18571h5.8048v-18.1672h2.2082s2.71-.0501 2.71 2.7603c0 2.8103-2.4256 2.6765-2.4256 2.6765h-1.5558v5.1357h3.6636s6.5074.3345 6.223-7.9963c-.2677-7.92928-8.9163-7.62817-8.9163-7.62817h-7.6784"/><path d="m149.036 18.5073 2.074-.3179c.084.4015.268.7026.536.9201.267.2007.652.3178 1.137.3178s.937-.1003 1.205-.3011c.184-.1338.267-.3178.267-.552s-.05-.2844-.15-.3848c-.101-.1004-.335-.184-.686-.2676-1.656-.3681-2.727-.7026-3.162-1.0038-.619-.4182-.92-1.0037-.92-1.7564 0-.7528.268-1.238.803-1.7064s1.355-.6858 2.476-.6858 1.857.1673 2.375.5186c.519.3513.87.8698 1.071 1.539l-1.941.3513c-.083-.3011-.234-.5353-.468-.7026s-.569-.2509-1.004-.2509-.937.0669-1.171.2342c-.15.1003-.234.2509-.234.4182s.067.2676.201.368c.184.1338.82.3346 1.924.5855s1.873.552 2.308.9201c.435.368.653.8866.653 1.539s-.302 1.3383-.904 1.8401c-.602.5186-1.472.7695-2.643.7695s-1.907-.2174-2.526-.6524c-.619-.4349-1.02-1.0204-1.221-1.7565m-95.3359 2.2417h-2.3588l-.9368-2.4424h-4.2992l-.8866 2.4424h-2.3085l4.1988-10.77322h2.2918l4.316 10.77322zm-4.0149-4.2491-1.4888-3.9981-1.4554 3.9981zm3.6636 2.0242 2.0743-.3179c.0836.4015.2676.7026.5353.9201.2677.2007.6524.3178 1.1375.3178.4852 0 .9368-.1003 1.2045-.3011.184-.1338.2677-.3178.2677-.552s-.0502-.2844-.1506-.3848-.3346-.184-.6859-.2676c-1.6561-.3681-2.7267-.7026-3.1617-1.0038-.6189-.4182-.92-1.0037-.92-1.7564 0-.7528.2676-1.238.8029-1.7064s1.355-.6858 2.4759-.6858c1.1208 0 1.8568.1673 2.3754.5186s.8699.8698 1.0706 1.539l-1.9405.3513c-.0836-.3011-.2342-.5353-.4684-.7026s-.5687-.2509-1.0037-.2509c-.4349 0-.9368.0669-1.171.2342-.1505.1003-.2342.2509-.2342.4182s.0669.2676.2008.368c.184.1338.8197.3346 1.9237.5855 1.1041.2509 1.8736.552 2.3086.9201.4349.368.6524.8866.6524 1.539s-.3011 1.3383-.9034 1.8401c-.6022.5186-1.4721.7695-2.6431.7695s-1.907-.2174-2.526-.6524c-.6189-.4349-1.0204-1.0204-1.2211-1.7565zm7.6282 0 2.0743-.3179c.0836.4015.2677.7026.5353.9201.2677.2007.6524.3178 1.1375.3178.4852 0 .9368-.1003 1.2045-.3011.184-.1338.2677-.3178.2677-.552s-.0502-.2844-.1506-.3848-.3346-.184-.6859-.2676c-1.6561-.3681-2.7267-.7026-3.1617-1.0038-.6189-.4182-.92-1.0037-.92-1.7564 0-.7528.2676-1.238.8029-1.7064.5354-.4684 1.3551-.6858 2.4759-.6858s1.8568.1673 2.3754.5186.8699.8698 1.0706 1.539l-1.9405.3513c-.0836-.3011-.2342-.5353-.4684-.7026s-.5687-.2509-1.0037-.2509c-.4349 0-.9368.0669-1.171.2342-.1505.1003-.2342.2509-.2342.4182s.0669.2676.2008.368c.184.1338.8197.3346 1.9237.5855 1.1041.2509 1.8736.552 2.3086.9201.4349.368.6524.8866.6524 1.539s-.3011 1.3383-.9033 1.8401c-.6023.5186-1.4722.7695-2.6432.7695-1.1709 0-1.907-.2174-2.526-.6524-.6189-.4349-1.0204-1.0204-1.2211-1.7565zm7.8624-1.79c0-.6859.1672-1.355.5018-1.9907s.8197-1.1375 1.4387-1.4721c.6189-.3346 1.3048-.5019 2.0743-.5019 1.171 0 2.1413.3848 2.894 1.1543.7528.7695 1.1376 1.7398 1.1376 2.9108s-.3848 2.158-1.1376 2.9275c-.7695.7695-1.723 1.171-2.8773 1.171-1.1542 0-1.4052-.1673-2.0408-.4852-.6525-.3178-1.1376-.8029-1.4889-1.4219-.3346-.6189-.5018-1.3885-.5018-2.2751zm2.1078.1171c0 .7695.184 1.3717.552 1.7732.368.4182.8197.619 1.355.619s.987-.2008 1.355-.619.5521-1.0037.5521-1.7899c0-.7863-.1841-1.355-.5521-1.7565-.368-.4182-.8197-.619-1.355-.619s-.987.2008-1.355.619-.552 1.0037-.552 1.7732zm13.617-1.5892-2.0409.368c-.0669-.4015-.2175-.7193-.4684-.92-.2509-.2008-.552-.3012-.9368-.3012s-.9201.1841-1.2379.5354c-.3011.3513-.4517.9535-.4517 1.7899s.1506 1.5725.4684 1.9572c.3179.3848.7193.5688 1.2547.5688.5353 0 .7193-.1171.9702-.3346.2509-.2174.435-.6022.5353-1.1542l2.0242.3513c-.2175.9368-.619 1.6394-1.2212 2.1078-.6022.4851-1.4052.7193-2.4089.7193s-2.0576-.3513-2.7268-1.0706c-.6858-.7194-1.0204-1.7231-1.0204-2.9944 0-1.2714.3346-2.2918 1.0204-3.0112.6859-.7193 1.606-1.0706 2.7602-1.0706 1.1543 0 1.7063.2007 2.2584.619.552.4014.9702 1.0371 1.2044 1.8736zm.8029-3.3624v-1.90709h2.0577v1.90709zm0 8.8494v-7.7955h2.0577v7.7955zm4.9684-5.4201-1.8736-.3346c.2175-.7527.5688-1.3048 1.0874-1.6728s1.2713-.5521 2.2918-.5521c1.0204 0 1.6059.1171 2.0576.3346s.7695.5019.9535.8364c.184.3346.2844.9536.2844 1.8402v2.4089c-.0167.6859 0 1.1877.0836 1.5223.067.3178.1841.6691.3681 1.0372h-2.0409c-.0502-.1339-.1171-.3346-.2008-.6023-.0334-.1171-.0501-.2007-.0669-.2509-.3513.3513-.736.6022-1.1375.7695s-.8364.2509-1.2881.2509c-.803 0-1.4387-.2174-1.8903-.6524-.4684-.4349-.7026-.987-.7026-1.6561s.1003-.8364.3178-1.171c.2175-.3513.5019-.6022.8866-.7862.3848-.184.9201-.3513 1.6394-.4852.9703-.184 1.6394-.3513 2.0074-.5018v-.2008c0-.4014-.1003-.6858-.3011-.8531-.2007-.1673-.5687-.2509-1.1041-.2509-.5353 0-.6524.0669-.8531.2174-.2007.1506-.368.4015-.5019.7528zm2.7602 1.6729c-.2676.0836-.6859.2007-1.2546.3178-.5688.1171-.9535.2509-1.1208.3513-.2677.2007-.4015.4349-.4015.7193s.1004.5353.3178.7528c.2175.2175.4851.3179.8197.3179s.7194-.1171 1.0706-.3681c.251-.184.4183-.4182.4852-.6858.0502-.1673.0836-.5186.0836-1.0038v-.4182zm6.8922-4.0483v1.6394h-1.4052v3.1449c0 .6357 0 1.0037.0334 1.1208.0335.1004.0837.184.184.2677.1004.0669.2175.1004.3513.1004.2008 0 .4684-.067.8365-.2008l.1671 1.606c-.485.2007-1.0203.3011-1.6392.3011-.619 0-.7026-.0669-1.0038-.184-.3011-.1171-.5185-.2844-.6524-.4852-.1338-.2007-.2342-.4684-.2843-.8029-.0502-.2342-.067-.7194-.067-1.4554v-3.3959h-.9535v-1.6394h.9535v-1.5558l2.0744-1.2044v2.7602h1.4052zm5.2021 5.3196 2.058.3513c-.268.7528-.686 1.3216-1.255 1.7231-.568.4015-1.288.5855-2.141.5855-1.355 0-2.359-.435-3.011-1.3216-.519-.7026-.769-1.6059-.769-2.6933 0-1.0873.334-2.3085 1.02-3.0446.669-.736 1.522-1.1041 2.559-1.1041 1.038 0 2.075.3848 2.744 1.1543s.987 1.9405.953 3.5297h-5.169c0 .619.184 1.0874.502 1.422.318.3345.719.5185 1.188.5185.468 0 .585-.0836.82-.2676.217-.184.384-.4684.501-.8532zm.118-2.091c0-.6023-.168-1.0539-.469-1.3718-.301-.3178-.652-.4684-1.07-.4684-.419 0-.82.1673-1.121.5019s-.435.7695-.435 1.3383h3.078zm10.137 4.5669h-1.924v-1.1376c-.318.4517-.686.7695-1.121 1.0037-.435.2175-.869.3179-1.304.3179-.904 0-1.657-.3681-2.309-1.0874-.636-.7193-.953-1.723-.953-3.0278 0-1.3049.317-2.3253.936-3.0112s1.406-1.0372 2.359-1.0372c.954 0 1.623.3681 2.258 1.0874v-3.88102h2.058zm-5.504-4.0651c0 .8364.117 1.4387.352 1.8067.334.5353.803.803 1.388.803.586 0 .887-.2008 1.221-.6023.335-.4014.502-1.0037.502-1.8066 0-.803-.167-1.5391-.485-1.9405-.318-.4015-.736-.5855-1.238-.5855s-.903.2007-1.221.5855c-.335.3847-.502.9702-.502 1.7397zm10.991 4.0651v-10.77322h3.496c1.322 0 2.192.05022 2.576.16732.619.1673 1.138.5186 1.556 1.0539s.619 1.2379.619 2.091c0 .8532-.117 1.2212-.368 1.6729-.234.4517-.535.803-.92 1.0706-.368.2509-.753.4182-1.121.5019-.518.1003-1.271.1505-2.258.1505h-1.422v4.0651h-2.175zm2.175-8.9498v3.0613h1.187c.854 0 1.439-.0502 1.723-.1673.285-.1171.519-.2844.686-.5353.168-.2342.251-.5186.251-.8364 0-.3179-.117-.7193-.351-.9703-.234-.2509-.519-.4182-.87-.4851-.268-.0502-.786-.0669-1.556-.0669h-1.054zm9.067 8.9498h-2.058v-7.7955h1.924v1.104c.334-.5185.619-.8698.886-1.0371.268-.1673.552-.251.887-.251s.92.1339 1.355.3848l-.636 1.79c-.351-.2175-.669-.3346-.97-.3346s-.535.0836-.736.2342c-.201.1505-.351.4517-.468.8699-.118.4182-.168 1.2881-.168 2.6096v2.4089zm7.644-2.4759 2.058.3513c-.268.7528-.686 1.3216-1.255 1.7231-.568.4015-1.288.5855-2.141.5855-1.355 0-2.359-.435-3.011-1.3216-.519-.7026-.769-1.6059-.769-2.6933 0-1.0873.334-2.3085 1.02-3.0446.669-.736 1.522-1.1041 2.559-1.1041 1.038 0 2.075.3848 2.744 1.1543s.987 1.9405.97 3.5297h-5.169c0 .619.184 1.0874.502 1.422.318.3345.719.5185 1.188.5185.468 0 .585-.0836.819-.2676.218-.184.385-.4684.502-.8532zm.118-2.091c0-.6023-.168-1.0539-.469-1.3718-.301-.3178-.652-.4684-1.07-.4684-.419 0-.82.1673-1.121.5019s-.435.7695-.435 1.3383h3.078zm2.258 2.342 2.074-.3179c.084.4015.268.7026.536.9201.267.2007.652.3178 1.137.3178s.937-.1003 1.205-.3011c.184-.1338.267-.3178.267-.552s-.05-.2844-.15-.3848c-.101-.1004-.335-.184-.686-.2676-1.656-.3681-2.727-.7026-3.162-1.0038-.619-.4182-.92-1.0037-.92-1.7564 0-.7528.268-1.238.803-1.7064s1.355-.6858 2.476-.6858 1.857.1673 2.375.5186c.519.3513.87.8698 1.071 1.539l-1.941.3513c-.083-.3011-.234-.5353-.468-.7026s-.569-.2509-1.004-.2509-.937.0669-1.171.2342c-.15.1003-.234.2509-.234.4182s.067.2676.201.368c.184.1338.82.3346 1.924.5855s1.873.552 2.308.9201c.435.368.653.8866.653 1.539s-.302 1.3383-.904 1.8401c-.602.5186-1.472.7695-2.643.7695s-1.907-.2174-2.526-.6524c-.619-.4349-1.02-1.0204-1.221-1.7565"/></g></svg>