<svg fill="none" height="17" viewBox="0 0 117 17" width="117" xmlns="http://www.w3.org/2000/svg"><g fill="#000"><path d="m17.4063 16.3355h11.1211v-2.9344h-7.7602v-3.59908h6.434v-2.93689h-6.434v-3.31352h7.807v-2.934422h-11.1679z"/><path d="m41.9174 10.511-7.2853-9.893812h-5.0168l1.5623 1.989102v13.77851h3.3585v-10.3222l7.524 10.2729h3.2182v-15.718312h-3.3609z"/><path d="m12.3435 8.24864c1.4763-.2831 2.7065-1.65676 2.7065-3.59663-.0099-2.09496-1.523-4.034822-4.5518-4.034822h-9.7482l1.51316 1.939862v13.78585h8.57454c3.0313 0 4.5912-1.8931 4.5912-4.2613-.0566-1.9472-1.3926-3.60401-3.0854-3.83296zm-6.71941-4.67734h4.21225c1.13666 0 1.84536.66467 1.84536 1.65676s-.7087 1.65677-1.84536 1.65677h-4.21225zm4.35249 9.847h-4.35249v-3.61629h4.35249c1.27942 0 1.98802.80499 1.98802 1.79959 0 1.1348-.7578 1.7995-1.98802 1.7995z"/><path d="m94.4451 10.511h1.7518v1.8488c-.9061.7506-2.042 1.1676-3.2182 1.1816-2.7926 0-4.7782-2.1294-4.7782-5.01704s1.9856-5.01953 4.7782-5.01953c.7176.00595 1.4224.19097 2.0505.5383.6282.34733 1.1597.846 1.5466 1.4508l2.6499-1.47705c-1.1343-1.7897-3.1248-3.399692-6.2938-3.399692-4.4484 0-8.1391 3.077202-8.1391 7.860402 0 4.78321 3.6439 7.85791 8.1391 7.85791 1.214.0202 2.4179-.2234 3.5287-.7138 1.1107-.4905 2.102-1.2162 2.9053-2.127v-5.82211h-7.1918z"/><path d="m79.3041 10.511-7.2878-9.893812h-5.0168l1.5624 1.989102v13.77851h3.3609v-10.3222l7.524 10.2729h3.2158v-15.718312h-3.3585z"/><path d="m110.485.617188h-6.481l1.56 1.989102-.283.75576-5.017 13.02275h3.787l.984-2.6538h6.779l.984 2.6538h3.784zm-4.586 10.132612 2.46-6.77231 2.461 6.77231z"/><path d="m65.0611.617188h-3.3609v15.767612h3.3609z"/><path d="m59.0036 3.31528v-2.698092h-11.8322v2.934422h7.4305l-7.4305 10.08579v2.6981h11.9749v-2.9344h-7.6199z"/></g></svg>