<svg fill="none" height="31" viewBox="0 0 81 31" width="81" xmlns="http://www.w3.org/2000/svg"><g fill="#000"><path d="m33.404.658203c-.005.065822-.0152.131645-.0152.20253v6.227797c0 .06076.0051.11646.0102.20253.0557-.03544.0962-.05569.1265-.08607 1.2355-1.34176 2.7747-1.61012 4.4506-1.15442 1.6102.4405 2.4304 1.64555 2.7646 3.21516.0962.45063.1468.92147.1468 1.38227.0152 2.5418.0051 5.0784.0051 7.6202 0 .0759-.0102.1468-.0152.238h-4.3392v-.3038c0-2.1114.005-4.2177-.0051-6.3291 0-.3342-.0456-.6734-.1316-.9975-.157-.5721-.5519-.92146-1.1494-.99235-.6177-.07089-1.1392.11139-1.4886.64805-.2835.4304-.3544.9216-.3544 1.4279v6.2278.3139h-4.3544v-17.842897h4.3544z"/><path d="m81.0001.708836c-.0456.086075-.1013.17215-.1367.263289-1.4633 3.534145-2.9316 7.068295-4.3899 10.607475-.086.2076-.1822.2886-.4202.2886-1.519-.0101-3.038-.005-4.5519-.005-.0911 0-.1823 0-.3139 0 .0506-.1317.0861-.2228.1215-.3139 1.4633-3.53419 2.9266-7.07341 4.3899-10.607555.0354-.091138.0557-.18734.086-.283542h5.0127c.0658 0 .1367.03038.2025.050633z"/><path d="m49.5028 30.3284c-.1114-.0253-.2228-.0608-.3393-.081-1.0227-.1924-1.767-.7595-2.2531-1.6709-.7747-1.4531-.6025-3.3417.4405-4.5316.8304-.9468 1.8835-1.2658 3.1088-.9823.4203.0962.7798.314 1.0785.6279.0506.0506.1063.1012.2127.2025.0101-.1975.0303-.3342.0202-.4709-.0152-.2177.0861-.2683.2886-.2633.6076.0102 1.2152 0 1.8228 0 .324 0 .324 0 .324.3443v4.8354c0 .4962-.005.9975 0 1.4937 0 .2025-.0506.2886-.2683.2835-.6329-.0101-1.2658-.0101-1.8987 0-.2178 0-.2836-.081-.2735-.2835.0102-.1367-.0101-.2734-.0151-.4152-.0304-.0152-.0608-.0304-.0962-.0506-.0659.0861-.1165.1873-.1924.2633-.3849.3696-.8507.5671-1.3722.643-.081.0101-.162.0456-.238.0658h-.3544zm.8354-2.2582c.8456 0 1.5038-.6228 1.5089-1.443 0-.7899-.6583-1.4583-1.4684-1.4684-.8202-.0101-1.4987.6431-1.4987 1.4582 0 .8152.6329 1.4481 1.4633 1.4532z"/><path d="m72.3364 30.3258c-.1772-.0354-.3594-.081-.5367-.1063-1.6759-.2531-2.8253-1.5645-2.8961-3.2658-.0557-1.3063.3392-2.4101 1.3822-3.2303 1.5848-1.2456 4.0709-.9317 5.1949.643.5722.8051.7342 1.7215.6886 2.6886-.0101.2025-.1468.1721-.2683.1721-1.2658 0-2.5317 0-3.7975 0-.1772 0-.3544 0-.5316 0-.2633 0-.2886.0405-.2177.3038.1266.4507.5822.795 1.0987.8405.4709.0405.881-.0759 1.2202-.4253.0507-.0506.1671-.1012.2279-.0759.6531.2379 1.3063.4911 1.9898.7595-.0607.0962-.1012.1721-.1519.243-.6481.881-1.5493 1.2911-2.6126 1.4025-.0962.0101-.1924.0405-.2937.0658h-.5063zm1.4228-4.5062c-.0304-.4-.2177-.6735-.5418-.8406-.4961-.2531-.9974-.2379-1.4582.0811-.2531.1721-.4253.4151-.405.7595z"/><path d="m66.4636 30.3291c-.1721-.0355-.3392-.076-.5164-.1064-1.7418-.2835-2.9317-1.6607-2.962-3.4227-.0304-1.7367.8151-3.0582 2.324-3.6.9215-.3291 1.8481-.324 2.7747 0 .1772.0608.2481.157.2481.3494-.0102.5671 0 1.1291 0 1.6962 0 .0759-.0102.1468-.0152.2329-.2633-.0861-.5013-.1874-.7545-.2431-.4405-.1012-.8708-.0759-1.281.1368-.5316.2734-.7949.724-.7797 1.3113.0203.6076.3848 1.0785.9519 1.276.5468.1924 1.0785.1266 1.5949-.1114.0709-.0304.1367-.0658.2025-.0962h.0456c.0101.0557.0253.1215.0253.1823v1.7721c0 .1721-.0607.2683-.2227.3139-.319.081-.633.162-.9519.2481-.0811.0203-.157.0456-.238.0658h-.4557z"/><path d="m23.3726 7.22655v-1.06328h4.1822v12.32903h-4.1873v-1.0886c-.0658.0456-.0962.0557-.1164.081-1.0127 1.1342-2.3241 1.4683-3.7671 1.3164-2.6481-.2734-4.6379-2.1518-5.1949-4.8961-.4658-2.3038 0-4.39999 1.5798-6.18225 1.4835-1.67088 3.8126-2.28859 5.7822-1.58986.6481.22784 1.205.5924 1.6557 1.11897.0202-.01012.0405-.01519.0607-.02531zm-2.4607 7.66575c1.4379 0 2.5518-1.1139 2.5569-2.5468 0-1.4329-1.119-2.55188-2.5519-2.55695-1.4531 0-2.5822 1.10885-2.5822 2.55185 0 1.4431 1.1189 2.5519 2.5772 2.5519z"/><path d="m0 6.14591h.303795c1.382265 0 2.769595 0 4.151865-.00506.20253 0 .29367.06582.36456.25316.86075 2.22277 1.73669 4.44549 2.60251 6.66829.03544.0912.07595.1874.13671.3342.05569-.1266.0962-.2025.12658-.2836.881-2.2278 1.76201-4.45562 2.63288-6.68345.081-.21265.1823-.29367.4152-.2886 1.3266.01519 2.6481.00506 3.9746.00506h.314c-.0355.10633-.0608.18228-.0912.25823-2.2734 5.47846-4.5417 10.95186-6.81004 16.43026-.08102.2025-.17722.2785-.4.2785-1.35189-.0102-2.69871-.0051-4.0506-.0051s-.16203 0-.28354 0c.04556-.1215.07594-.2076.11139-.2937.55695-1.3113 1.10379-2.6278 1.67087-3.9341.08101-.1874.07595-.3392 0-.5266-1.67594-3.9443-3.34681-7.8885-5.017682-11.83281-.04557-.10633-.0860757-.21266-.151898-.37468z"/><path d="m69.0317 12.0117c0 3.7569-2.4506 6.4557-5.848 6.7797-2.3089.2177-4.3392-.4202-5.8582-2.2278-1.6608-1.9798-1.9646-4.2734-1.0582-6.6582.8911-2.33922 2.7088-3.62023 5.1645-3.97465 1.5291-.22279 3.0076.00506 4.3544.7848 2.167 1.24556 3.1696 3.17972 3.2405 5.30125zm-6.6176-2.16706c-1.4026 0-2.476 1.08356-2.481 2.49616 0 1.4228 1.0784 2.5114 2.4961 2.5063 1.4026-.005 2.4709-1.0936 2.4658-2.5063 0-1.4126-1.0784-2.49616-2.4809-2.49616z"/><path d="m55.0501 11.9673c-.005 3.9747-2.7291 6.7696-6.324 6.8607-2.1316.0507-3.9949-.6025-5.3771-2.2632-1.6507-1.9899-1.9646-4.2734-1.0532-6.65821.8962-2.33922 2.7088-3.61516 5.1645-3.97972 1.4228-.20759 2.8051-.02531 4.0861.64304 2.3341 1.21011 3.4278 3.19491 3.5088 5.40249zm-6.6075 2.876c1.4025 0 2.4759-1.0886 2.4759-2.5013 0-1.4126-1.0785-2.49617-2.4759-2.50123-1.4127 0-2.4861 1.08863-2.481 2.51643 0 1.4127 1.0785 2.4911 2.486 2.4861z"/><path d="m57.9175 23.8933c.0405-.0405.086-.0709.1215-.1165.6329-.7848 1.4683-.9468 2.3949-.7392.9215.2025 1.438.8304 1.6557 1.7215.0709.2835.1013.5823.1013.8759.0101 1.3924 0 2.7848.0101 4.1772 0 .238-.0709.3038-.3038.2988-.6177-.0152-1.2304-.0152-1.8481 0-.2532.005-.3392-.0659-.3342-.3241.0152-1.0481.0051-2.0911 0-3.1392 0-.1924-.0101-.3899-.0304-.5823-.0556-.5114-.3898-.8405-.8658-.8607-.4455-.0152-.8303.2987-.9265.7746-.0355.1823-.0507.3697-.0557.5519 0 1.0988-.0102 2.1924 0 3.2912 0 .2278-.0709.2886-.2886.2835-.6431-.0152-1.281-.0101-1.9241 0-.1974 0-.2683-.0608-.2683-.2582 0-2.1418 0-4.2835 0-6.4253 0-.1924.0557-.2683.2582-.2683.6582.0101 1.3164.0101 1.9747 0 .1873 0 .2582.0607.243.248-.0101.157 0 .314 0 .4709.0253.0102.0506.0152.0759.0254z"/><path d="m41.4166 23.9334c.0354-.0557.0608-.1215.1013-.1721 1.0835-1.3063 3.2405-.9975 3.8835.5671.1367.3341.2278.7139.2329 1.0784.0253 1.4836.0101 2.9671.0202 4.4557 0 .1924-.0708.2481-.2531.243-.6481-.0101-1.3013-.0101-1.9494 0-.2126 0-.2784-.0658-.2734-.2734.0101-1.1291.0101-2.2582 0-3.3924 0-.2177-.0304-.4405-.0962-.648-.1114-.3747-.3949-.5671-.7747-.5823-.3645-.0152-.6835.1215-.8253.4709-.1063.2582-.1671.5519-.1721.8303-.0203 1.0886-.0152 2.1772 0 3.2658 0 .2481-.0557.3443-.3241.3342-.6329-.0202-1.2658-.0101-1.8987 0-.1975 0-.2633-.0608-.2633-.2582.0051-2.1418 0-4.2835 0-6.4253 0-.1873.0456-.2734.2532-.2683.6582.0101 1.3164.0101 1.9746 0 .1874 0 .2633.0557.2532.2481-.0101.162 0 .324 0 .486.0355.0152.076.0304.1114.0456z"/><path d="m34.2729 21.919c-.2734-.0203-.5418-.0659-.8051-.0608-.5974.0152-1.0126.4962-.9823 1.0937.0102.1721.1013.2076.2481.2076h1.2405c.1722 0 .2431.0557.238.2329-.005.5164-.005 1.0278 0 1.5443 0 .162-.0607.2228-.2278.2177-.395-.0101-.795.0101-1.1899-.0051-.2532-.0101-.3139.0861-.3139.319.0101 1.4177 0 2.8354 0 4.2531 0 .26-.1266.3899-.3798.3899-.5924 0-1.1797-.0101-1.7721 0-.238.0051-.319-.0607-.319-.3088.0101-1.4329.0051-2.8658.0051-4.3038 0-.3494 0-.3494-.3443-.3544-.4051 0-.6076-.2026-.6076-.6076 0-.3646.0101-.7241 0-1.0886-.0051-.2127.0557-.319.2835-.2937.1317.0152.2684-.0051.4051 0 .1975.0152.2481-.0709.2734-.2633.0608-.481.0911-.9823.2532-1.4329.3848-1.0582 1.2253-1.5898 2.3139-1.686.486-.0456.9873.0455 1.4784.0962.0811.0101.2127.1417.2178.2177.0152.5873.005 1.1797 0 1.7721 0 .0203-.0203.0456-.0254.0557z"/><path d="m69.5938 15.8902c0-1.6253 1.3012-2.9214 2.9316-2.9214 1.605 0 2.8405 1.2404 2.8303 2.8404-.005 1.6405-1.3063 2.9266-2.9569 2.9215-1.5848-.005-2.8101-1.2506-2.805-2.8405z"/><path d="m37.6685 26.633v3.2355c0 .1721-.0405.2379-.2228.2379-.6734-.0101-1.3468-.0101-2.0253 0-.1772 0-.2329-.0607-.2329-.2329 0-2.1569 0-4.3139 0-6.4759 0-.1873.0658-.2481.2481-.243.6481.0101 1.2962.0101 1.9493 0 .2279 0 .2887.081.2836.2937-.0101 1.0632 0 2.1265 0 3.1847z"/><path d="m36.4315 22.4204c-.7798 0-1.3924-.5974-1.3924-1.3671 0-.7594.6278-1.3873 1.3873-1.3873.7645 0 1.3873.6228 1.3924 1.3823 0 .7747-.5975 1.3671-1.3823 1.3721z"/></g></svg>